<svg xmlns="http://www.w3.org/2000/svg" viewBox="0 0 674.87 113.39"><defs><style>.cls-1{fill:#fff;}</style></defs><title>rdam-wb</title><g id="Layer_2" data-name="Layer 2"><rect width="674.87" height="113.39"/><path class="cls-1" d="M645.57,96.71a12.62,12.62,0,1,1,12.75-12.39A12.54,12.54,0,0,1,645.57,96.71Z"/><path class="cls-1" d="M600.74,19.1h24.44V94.37H604.08V63.63C592.4,90.13,592,90.88,590.56,94.37h-9.44c-3.85-9.64-11.58-30.12-11.84-30.67V94.37H548V19.09h23.7l13.86,36.46S595.9,31.13,600.74,19.1Z"/><path class="cls-1" d="M123.78,96.89A41.77,41.77,0,0,1,103.45,92c-12.28-6.66-19-17.19-20.76-30.89A37,37,0,0,1,93.21,29.22a40,40,0,0,1,21-11.61c14.67-3,27.91.08,39,10.25,9.73,8.89,13.59,20.15,12,33.24-1.35,10.93-6,20.08-14.72,27C142.73,94.31,133.67,96.91,123.78,96.89Zm.2-21.06A18.83,18.83,0,0,0,141.74,63.4c2.62-6.92,2.1-13.48-3-19.12a19.06,19.06,0,0,0-17.84-6.43,18.51,18.51,0,0,0-15.44,23.05A19.17,19.17,0,0,0,124,75.83Z"/><path class="cls-1" d="M402.88,19h1.22c9.52,0,19-.17,28.55.09a37.64,37.64,0,0,1,7.9,74.16,42.35,42.35,0,0,1-9.47,1.16H404.4c-.43,0-1.12,0-1.53,0Zm21.39,56.68c4,0,7.63.06,11.16-1.22a16,16,0,0,0,10.42-11.15,24.33,24.33,0,0,0,.81-8.62c-.65-9-6.18-15.14-15-16.64a42.15,42.15,0,0,0-7.35-.25Z"/><path class="cls-1" d="M57.86,94.4,42.38,70.17l-.45-.72V94.39H20.47V18.95H21.7c10.24,0,20.48-.06,30.71.13A32.15,32.15,0,0,1,61,20.53c9.37,2.83,15,10.06,15.59,19.85a26.2,26.2,0,0,1-1.92,12.36,19.42,19.42,0,0,1-10.7,10.6l-2.15.9L84.87,94.39Zm-16.47-59V52.49a29.79,29.79,0,0,0,6.81-.71c5.14-1,7.31-4.25,6.65-9.47A6.52,6.52,0,0,0,51,36.88C48,35.46,44.87,35.4,41.39,35.4Z"/><path class="cls-1" d="M400,94.37H373L357.54,70.2l-.44-.65c0,2.27-.07,4-.07,6.56,0,2,0,4.07,0,6.1v5.88c0,2,0,4.31,0,6.29H335.78V19c.95,0,.95,0,1.44,0,9.73,0,19.47,0,29.2,0a31.1,31.1,0,0,1,11.7,2.23,20.42,20.42,0,0,1,13,15.25,26.1,26.1,0,0,1-1.38,16.43,19.44,19.44,0,0,1-10.78,10.53c-.6.25-1.21.48-2,.8ZM356.42,52.08c3.08,0,7-.08,9.58-1.12,5.42-2.25,5.06-10.85,1.5-13.27-3.38-2.29-7.14-2.36-11.08-2.32Z"/><path class="cls-1" d="M490.32,86.88l-3.06,7.49H464.38c.36-1.07.36-1.07.48-1.41Q479,56.08,493.26,19.09h22.67c9.4,25,18.94,50.23,28.38,75.28-3.78,0-16.66,0-23.07,0l-2.87-7.51ZM504.68,47.3l-.17-.5s-.08.2-.19.5l-7.43,22.14H512.1Z"/><path class="cls-1" d="M283.81,94.37V19.08h43.91c.22,6.11.06,12.23.11,18.6H305.49V47l6.85.05h13.88c0,2.09,0,15.21,0,18.77H305.46v9.83c7.39.13,14.89,0,22.36.09V94.37Z"/><path class="cls-1" d="M277.31,19.09V37.64H261.82V94.38H240.17c-.18-4.64-.06-9.33-.08-14s0-9.44,0-14.17V52.26c0-4.71,0-9.77,0-14.56h-5.24c-1.67-.06-3.34,0-5,0h-5.28V19.09Z"/><path class="cls-1" d="M203.43,94.45H181.8c0-2.73,0-5.38-.05-8s0-5.38,0-8.06V37.75c-5.61,0-9.78,0-15.37,0,0-1.83,0-16,0-18.69l52.6,0c0,1.89,0,14.08,0,18.66H203.43Z"/></g></svg>