<svg xmlns="http://www.w3.org/2000/svg" viewBox="0 0 1678.32 113.39"><defs><style>.cls-1{fill:#fff;}</style></defs><title>iih-r-bw</title><g id="Layer_1" data-name="Layer 1"><path d="M944.8,19V37.36H929.34V94.18H907.73V37.5H892.16V19Z"/><path class="cls-1" d="M944.8,18.9V19H892.16V18.9Z"/><path d="M884.63,18.93V94.17H863.36V18.93Z"/><path class="cls-1" d="M884.63,18.86v.07H863.36v-.07Z"/><path class="cls-1" d="M863.36,94.52h21.27V18.86H863.36V94.52ZM962.94,0V113.39H844.45V0ZM944.8,37.49V18.9H892.16V37.64h15.57V94.53h21.61v-57Z"/><path class="cls-1" d="M821.78,0V113.39H697.55V0ZM807.7,71.18q0-8.61-4.7-14t-14.82-8.57c-1.69-.53-3.39-1-5.12-1.5a29.13,29.13,0,0,1-4.64-1.66,10.87,10.87,0,0,1-3.32-2.25,4.53,4.53,0,0,1-1.27-3.31,5.55,5.55,0,0,1,2.53-4.71,11,11,0,0,1,6.54-1.8,19,19,0,0,1,6.55,1.25,25.9,25.9,0,0,1,6.75,3.86l8.23-15.34a56.73,56.73,0,0,0-12.35-4.56,52.84,52.84,0,0,0-12.34-1.55,34.34,34.34,0,0,0-11.45,1.8,24.89,24.89,0,0,0-8.65,5.07,22.58,22.58,0,0,0-5.48,7.81,25.49,25.49,0,0,0-2,10.18,20.53,20.53,0,0,0,1.85,9.27,18,18,0,0,0,4.85,6.06,25.22,25.22,0,0,0,6.86,3.86c2.57,1,5.19,1.85,7.86,2.66q3.38,1.09,5.75,2a17.17,17.17,0,0,1,3.85,2A5.87,5.87,0,0,1,786,73a6.55,6.55,0,0,1-2.48,5q-2.48,2.2-7.54,2.2a23.07,23.07,0,0,1-9-1.9,36,36,0,0,1-9.17-5.82l-8.87,15.84a49.66,49.66,0,0,0,28,8.52,42.26,42.26,0,0,0,13-1.86,28.1,28.1,0,0,0,9.71-5.21,22.06,22.06,0,0,0,6-8.06A26.07,26.07,0,0,0,807.7,71.18ZM738.28,94.73V19.17H717.6V94.73Z"/><path d="M803,57.2q4.69,5.37,4.7,14a26.07,26.07,0,0,1-2.06,10.53,22.06,22.06,0,0,1-6,8.06A28.1,28.1,0,0,1,789.92,95a42.26,42.26,0,0,1-13,1.86,49.66,49.66,0,0,1-28-8.52l8.87-15.84A36,36,0,0,0,767,78.3a23.07,23.07,0,0,0,9,1.9q5.07,0,7.54-2.2a6.59,6.59,0,0,0,1.85-8,6.48,6.48,0,0,0-2.11-2.31,17.17,17.17,0,0,0-3.85-2q-2.37-.9-5.75-2c-2.67-.81-5.29-1.69-7.86-2.66a25.22,25.22,0,0,1-6.86-3.86,18,18,0,0,1-4.85-6.06,20.53,20.53,0,0,1-1.85-9.27,25.49,25.49,0,0,1,2-10.18,22.58,22.58,0,0,1,5.48-7.81,24.89,24.89,0,0,1,8.65-5.07,34.34,34.34,0,0,1,11.45-1.8,52.84,52.84,0,0,1,12.34,1.55,56.73,56.73,0,0,1,12.35,4.56L796.2,38.51a25.9,25.9,0,0,0-6.75-3.86,19,19,0,0,0-6.55-1.25,11,11,0,0,0-6.54,1.8,5.55,5.55,0,0,0-2.53,4.71,4.53,4.53,0,0,0,1.27,3.31,10.87,10.87,0,0,0,3.32,2.25,29.13,29.13,0,0,0,4.64,1.66c1.73.47,3.43,1,5.12,1.5Q798.31,51.84,803,57.2Z"/><rect x="717.6" y="19.17" width="20.68" height="75.56"/><path class="cls-1" d="M1260,42.54c1,6.86-1.75,10.18-8.67,10.45-2.16.09-4.32,0-6.66,0V36.17c3.53-.1,6.91-.28,10.24.56A6.45,6.45,0,0,1,1260,42.54Z"/><path class="cls-1" d="M1193.28,37.71c3.11,2.21,3.23,5.48,2.9,8.79a6.33,6.33,0,0,1-4.94,5.93c-3.4.93-6.86.6-10.49.65V36.15c3.88,0,7.68-.36,11.38.95A4.87,4.87,0,0,1,1193.28,37.71Z"/><path class="cls-1" d="M1122.5,69.26h-15.16c2.47-7.37,4.89-14.61,7.57-22.6C1117.56,54.57,1120,61.81,1122.5,69.26Z"/><path class="cls-1" d="M1074.8,94.19h22.93c1-2.61,2.08-5.13,3.07-7.57h27.94l2.93,7.61h23L1126.33,19h-22.61C1094.1,44,1084.49,69,1074.8,94.19Zm-2.7-.08V18.92h-21.6V46.65h-24.69V18.89H1004.5V94.15h21.42V64.58h24.75V94.11ZM1678.32,0V113.39H985.6V0Zm-16,37.65a23.07,23.07,0,0,0-2-9.39,24.72,24.72,0,0,0-5.7-8,27.79,27.79,0,0,0-8.81-5.54,30.16,30.16,0,0,0-11.34-2.06,33.8,33.8,0,0,0-11.34,1.85,28,28,0,0,0-9.07,5.17,24,24,0,0,0-6,7.81,22.43,22.43,0,0,0-2.16,9.86h21a8.41,8.41,0,0,1,2-5.8,6.6,6.6,0,0,1,5.22-2.22,7.36,7.36,0,0,1,5.7,2.32,7.93,7.93,0,0,1,2.11,5.49,8.86,8.86,0,0,1-1.06,4.27,10,10,0,0,1-2.9,3.33,14.69,14.69,0,0,1-4.38,2.16,17.86,17.86,0,0,1-5.38.79,12.9,12.9,0,0,1-2-.16c-.71-.1-1.48-.23-2.32-.37V67.74h19.41v-7.6Q1662.35,53.49,1662.34,37.67ZM1646.41,84.3a12.17,12.17,0,0,0-1-4.8,12.3,12.3,0,0,0-2.63-4,12.49,12.49,0,0,0-4-2.64,12.73,12.73,0,0,0-9.6,0,12.13,12.13,0,0,0-6.6,6.6,12.73,12.73,0,0,0,0,9.6,12.49,12.49,0,0,0,2.64,4,12.3,12.3,0,0,0,4,2.63,12.6,12.6,0,0,0,9.6,0,12,12,0,0,0,6.59-6.59A12.17,12.17,0,0,0,1646.41,84.3Zm-45.33-32.37h-40.86V67.27h16.91a14.7,14.7,0,0,1-2,5.65,12.27,12.27,0,0,1-3.73,3.79,16,16,0,0,1-5.09,2.12,25.85,25.85,0,0,1-5.88.65,22.79,22.79,0,0,1-9-1.66,17.71,17.71,0,0,1-6.51-4.7,20,20,0,0,1-3.94-7.16,29.4,29.4,0,0,1-1.31-9,29,29,0,0,1,1.52-9.69,22.44,22.44,0,0,1,4.2-7.42,18.24,18.24,0,0,1,6.46-4.75,20.63,20.63,0,0,1,8.41-1.66,18.36,18.36,0,0,1,9.92,2.72q4.36,2.73,7.09,9l19.54-7.78Q1591.31,26.6,1582,21.45a44.37,44.37,0,0,0-21.74-5.15,48.94,48.94,0,0,0-17.34,2.93,38.9,38.9,0,0,0-13.29,8.17,35.63,35.63,0,0,0-8.5,12.67,43.11,43.11,0,0,0-3,16.3,42.77,42.77,0,0,0,3,16.4,37.08,37.08,0,0,0,8.51,12.72,38.37,38.37,0,0,0,13.08,8.23,46.62,46.62,0,0,0,16.86,2.92A50.07,50.07,0,0,0,1572.4,95a42.57,42.57,0,0,0,11.19-4.7,34.49,34.49,0,0,0,8.88-7.67,36.18,36.18,0,0,0,6-10.54,37.76,37.76,0,0,0,2.1-9.19A104.77,104.77,0,0,0,1601.08,51.93Zm-88.34,42V19h-20.57V60.54L1465.64,19H1445V93.89h20.68v-42l26.53,42Zm-76.53,0V19h-20.68V93.89Zm-29.63.21V18.88h-21.41V60.27c-9-14.36-17.5-27.95-26-41.43h-20.91V94.09h21.53V52.81c8.93,14.3,17.43,27.92,25.79,41.29Zm-77.53-56.83V18.88h-43.86V94.14H1329V75.51h-22.22V65.6h21.07V46.83h-21V37.27Zm-49,15.42a37.81,37.81,0,0,0,.65-12.76c-.71-6.45-3.25-12-8.67-15.94a28,28,0,0,0-16.39-5c-10.37-.14-20.75,0-31.12,0H1223V94.25h21.45v-24c3.07,0,5.9.14,8.7,0a66.37,66.37,0,0,0,10.56-1.14C1272.57,67.09,1278.05,61.56,1280.09,52.69Zm-63.82-.07a35.44,35.44,0,0,0,.07-16A20.81,20.81,0,0,0,1203,21.17,29.07,29.07,0,0,0,1192.63,19c-10.73-.09-21-.1-31.72-.13h-1.79V94.23h21.51v-24c3,0,5.67.09,8.34,0a68.76,68.76,0,0,0,9.09-.72C1207.72,67.82,1214.06,62.37,1216.27,52.62Z"/><path d="M1660.34,28.28a23.07,23.07,0,0,1,2,9.39q0,15.83-19.09,22.47v7.6h-19.41V47.16c.84.14,1.61.27,2.32.37a12.9,12.9,0,0,0,2,.16,17.86,17.86,0,0,0,5.38-.79,14.69,14.69,0,0,0,4.38-2.16,10,10,0,0,0,2.9-3.33,8.86,8.86,0,0,0,1.06-4.27,7.93,7.93,0,0,0-2.11-5.49,7.36,7.36,0,0,0-5.7-2.32,6.6,6.6,0,0,0-5.22,2.22,8.41,8.41,0,0,0-2,5.8h-21a22.43,22.43,0,0,1,2.16-9.86,24,24,0,0,1,6-7.81,28,28,0,0,1,9.07-5.17,33.8,33.8,0,0,1,11.34-1.85,30.16,30.16,0,0,1,11.34,2.06,27.79,27.79,0,0,1,8.81,5.54A24.72,24.72,0,0,1,1660.34,28.28Z"/><path d="M1645.46,79.5a12.6,12.6,0,0,1,0,9.6,12,12,0,0,1-6.59,6.59,12.6,12.6,0,0,1-9.6,0,12.3,12.3,0,0,1-4-2.63,12.49,12.49,0,0,1-2.64-4,12.73,12.73,0,0,1,0-9.6,12.13,12.13,0,0,1,6.6-6.6,12.73,12.73,0,0,1,9.6,0,12.49,12.49,0,0,1,4,2.64A12.3,12.3,0,0,1,1645.46,79.5Z"/><path d="M1560.22,51.93h40.86a104.77,104.77,0,0,1-.53,11,37.76,37.76,0,0,1-2.1,9.19,36.18,36.18,0,0,1-6,10.54,34.49,34.49,0,0,1-8.88,7.67A42.57,42.57,0,0,1,1572.4,95a50.07,50.07,0,0,1-12.81,1.61,46.62,46.62,0,0,1-16.86-2.92,38.37,38.37,0,0,1-13.08-8.23,37.08,37.08,0,0,1-8.51-12.72,42.77,42.77,0,0,1-3-16.4,43.11,43.11,0,0,1,3-16.3,35.63,35.63,0,0,1,8.5-12.67,38.9,38.9,0,0,1,13.29-8.17,48.94,48.94,0,0,1,17.34-2.93A44.37,44.37,0,0,1,1582,21.45q9.35,5.15,14.81,15.94l-19.54,7.78q-2.73-6.26-7.09-9a18.36,18.36,0,0,0-9.92-2.72,20.63,20.63,0,0,0-8.41,1.66,18.24,18.24,0,0,0-6.46,4.75,22.44,22.44,0,0,0-4.2,7.42,29,29,0,0,0-1.52,9.69,29.4,29.4,0,0,0,1.31,9,20,20,0,0,0,3.94,7.16,17.71,17.71,0,0,0,6.51,4.7,22.79,22.79,0,0,0,9,1.66,25.85,25.85,0,0,0,5.88-.65,16,16,0,0,0,5.09-2.12,12.27,12.27,0,0,0,3.73-3.79,14.7,14.7,0,0,0,2-5.65h-16.91Z"/><polygon points="1512.74 19.05 1512.74 93.89 1492.17 93.89 1465.64 51.9 1465.64 93.89 1444.96 93.89 1444.96 19.05 1465.64 19.05 1492.17 60.54 1492.17 19.05 1512.74 19.05"/><rect x="1415.53" y="19.05" width="20.68" height="74.84"/><path d="M1406.58,18.88V94.1h-21c-8.36-13.37-16.86-27-25.79-41.29V94.09h-21.53V18.84h20.91c8.45,13.48,17,27.07,26,41.43V18.88Z"/><path d="M1329.05,18.88V37.27H1306.8v9.56h21V65.6h-21.07v9.91H1329V94.14h-43.78V18.88Z"/><path d="M1280.74,39.93a37.81,37.81,0,0,1-.65,12.76c-2,8.87-7.52,14.4-16.34,16.39a66.37,66.37,0,0,1-10.56,1.14c-2.8.17-5.63,0-8.7,0v24H1223V19h1.52c10.37,0,20.75-.13,31.12,0a28,28,0,0,1,16.39,5C1277.49,27.9,1280,33.48,1280.74,39.93ZM1251.29,53c6.92-.27,9.66-3.59,8.67-10.45a6.45,6.45,0,0,0-5.09-5.81c-3.33-.84-6.71-.66-10.24-.56V53C1247,53,1249.13,53.08,1251.29,53Z"/><path d="M1216.34,36.65a35.44,35.44,0,0,1-.07,16c-2.21,9.75-8.55,15.2-18.21,16.89a68.76,68.76,0,0,1-9.09.72c-2.67.11-5.34,0-8.34,0v24h-21.51V18.89h1.79c10.73,0,21,0,31.72.13A29.07,29.07,0,0,1,1203,21.17,20.81,20.81,0,0,1,1216.34,36.65Zm-20.16,9.85c.33-3.31.21-6.58-2.9-8.79a4.87,4.87,0,0,0-1.15-.61c-3.7-1.31-7.5-1-11.38-.95V53.08c3.63-.05,7.09.28,10.49-.65A6.33,6.33,0,0,0,1196.18,46.5Z"/><path d="M1154.68,94.23h-23l-2.93-7.61H1100.8c-1,2.44-2,5-3.07,7.57H1074.8C1084.49,69,1094.1,44,1103.72,19h22.61Zm-47.34-25h15.16c-2.5-7.45-4.94-14.69-7.59-22.6C1112.23,54.65,1109.81,61.89,1107.34,69.26Z"/><path d="M1072.1,18.92V94.11h-21.43V64.58h-24.75V94.15H1004.5V18.89h21.31V46.65h24.69V18.92Z"/></g><g id="Layer_2" data-name="Layer 2"><path class="cls-1" d="M402.88,94.38c.4,0,1.09,0,1.52,0h26.68a42.45,42.45,0,0,0,9.46-1.17A37.64,37.64,0,0,0,432.64,19c-9.51-.27-19-.09-28.55-.1l-1.21,0Zm-2.86,0L376.91,64.23c.82-.32,1.42-.55,2-.8A19.44,19.44,0,0,0,389.71,52.9a26.11,26.11,0,0,0,1.38-16.43,20.4,20.4,0,0,0-13-15.25A31.08,31.08,0,0,0,366.41,19q-14.6-.06-29.19,0c-.5,0-.5,0-1.44,0V94.39H357V82.2c0-2,0-4.06,0-6.1,0-2.51.07-4.28.07-6.55l.44.65L373,94.38ZM674.87,0V113.39H0V0ZM658.31,84.31a12.63,12.63,0,1,0-12.74,12.4A12.56,12.56,0,0,0,658.31,84.31ZM625.18,94.38V19.1H600.74c-4.85,12-15.2,36.45-15.2,36.45L571.67,19.09H548V94.38h21.32V63.71c.26.54,8,21,11.84,30.67h9.43c1.47-3.5,1.84-4.25,13.52-30.75V94.38Zm-103.94,0h23.07c-9.43-25.06-19-50.32-28.38-75.28H493.26Q479,56.13,464.86,93c-.13.33-.13.33-.48,1.41h22.88c1-2.54,2-5,3.06-7.5h28.06Zm-193.42,0V75.79c-7.47-.1-15,0-22.36-.08V65.88h20.76V47.11H312.34l-6.85,0V37.68h22.33c-.05-6.37.11-12.49-.11-18.6h-43.9v75.3ZM277.31,37.64V19.09H224.55V37.7h5.28c1.67,0,3.35-.05,5,0,1.87,0,3.26,0,5.24,0V66.21c0,4.72,0,9.44,0,14.17s-.1,9.36.08,14h21.66V37.64ZM219,37.78c0-4.58,0-16.77,0-18.66l-52.6,0c0,2.73,0,16.85,0,18.69,5.6,0,9.76,0,15.37,0V86.41c0,2.66,0,5.32.06,8h21.62V37.78ZM165.27,61.11c1.62-13.1-2.24-24.36-12-33.24-11.13-10.18-24.37-13.31-39-10.26a40.12,40.12,0,0,0-21,11.61A37,37,0,0,0,82.69,61.13c1.8,13.7,8.48,24.22,20.76,30.89a41.78,41.78,0,0,0,20.33,4.87c9.89,0,19-2.58,26.77-8.79C159.23,81.19,163.91,72,165.27,61.11ZM57.86,94.4h27L61.79,64.25l2.15-.9a19.44,19.44,0,0,0,10.69-10.6,26.17,26.17,0,0,0,1.93-12.36c-.65-9.79-6.22-17-15.6-19.85a31.91,31.91,0,0,0-8.54-1.45c-10.24-.2-20.48-.12-30.72-.14H20.47V94.4H41.93v-25l.45.73Z"/><path d="M645.74,71.47A12.62,12.62,0,1,1,633.06,84,12.56,12.56,0,0,1,645.74,71.47Z"/><path d="M625.18,19.1V94.38h-21.1V63.63c-11.68,26.5-12,27.25-13.52,30.75h-9.43c-3.85-9.65-11.58-30.13-11.84-30.67V94.38H548V19.09h23.7l13.87,36.46s10.35-24.42,15.2-36.45Z"/><path d="M544.31,94.38H521.24l-2.86-7.51H490.32c-1,2.54-2,5-3.06,7.5H464.38c.35-1.08.35-1.08.48-1.41Q479,56.08,493.26,19.1h22.67C525.34,44.06,534.88,69.32,544.31,94.38ZM496.88,69.44H512.1c-2.53-7.52-5-14.83-7.43-22.13l-.17-.51s-.08.2-.19.51C501.86,54.62,499.4,61.92,496.88,69.44Z"/><path class="cls-1" d="M504.31,47.31c.11-.31.19-.51.19-.51l.17.51c2.45,7.3,4.9,14.61,7.43,22.13H496.88C499.4,61.92,501.86,54.62,504.31,47.31Z"/><path d="M468.91,52.38a37.82,37.82,0,0,1-28.37,40.83,42.45,42.45,0,0,1-9.46,1.17H404.4c-.43,0-1.12,0-1.52,0V19l1.21,0c9.52,0,19-.17,28.55.1A38,38,0,0,1,468.91,52.38Zm-23.06,10.9a24.36,24.36,0,0,0,.8-8.62c-.64-9-6.18-15.14-15-16.64a41.88,41.88,0,0,0-7.35-.25V75.64c4,0,7.63.07,11.16-1.21A16,16,0,0,0,445.85,63.28Z"/><path class="cls-1" d="M446.65,54.66a24.36,24.36,0,0,1-.8,8.62,16,16,0,0,1-10.42,11.15c-3.53,1.28-7.17,1.21-11.16,1.21V37.77a41.88,41.88,0,0,1,7.35.25C440.47,39.52,446,45.68,446.65,54.66Z"/><path d="M400,94.38H373L357.54,70.2l-.44-.65c0,2.27-.07,4-.07,6.55,0,2,0,4.07,0,6.1V94.38H335.78V19c.94,0,.94,0,1.44,0q14.59,0,29.19,0a31.08,31.08,0,0,1,11.7,2.23,20.4,20.4,0,0,1,13,15.25,26.11,26.11,0,0,1-1.38,16.43,19.44,19.44,0,0,1-10.78,10.53c-.6.25-1.2.48-2,.8ZM366,51c5.43-2.25,5.07-10.85,1.5-13.27-3.38-2.29-7.14-2.36-11.08-2.32V52.08C359.5,52.08,363.46,52,366,51Z"/><path class="cls-1" d="M367.49,37.69c3.57,2.42,3.93,11-1.5,13.27-2.53,1-6.49,1.12-9.58,1.12V35.37C360.35,35.33,364.11,35.4,367.49,37.69Z"/><path d="M327.82,75.79V94.38h-44V19.08h43.9c.22,6.11.06,12.23.11,18.6H305.49V47l6.85,0h13.88V65.88H305.46v9.83C312.85,75.84,320.35,75.69,327.82,75.79Z"/><path d="M277.31,19.09V37.64H261.82V94.39H240.16c-.18-4.65,0-9.33-.08-14s0-9.45,0-14.17V37.7c-2,0-3.37,0-5.24,0-1.66-.07-3.34,0-5,0h-5.28V19.09Z"/><path d="M218.94,19.12c0,1.89,0,14.08,0,18.66H203.42V94.45H181.8c0-2.72-.05-5.38-.06-8V37.75c-5.61,0-9.77,0-15.37,0,0-1.84,0-16,0-18.69Z"/><path d="M153.3,27.87c9.73,8.88,13.59,20.14,12,33.24-1.36,10.92-6,20.08-14.72,27-7.82,6.21-16.88,8.81-26.77,8.79A41.78,41.78,0,0,1,103.45,92c-12.28-6.67-19-17.19-20.76-30.89A37,37,0,0,1,93.21,29.22a40.12,40.12,0,0,1,21-11.61C128.93,14.56,142.17,17.69,153.3,27.87ZM141.74,63.4c2.62-6.92,2.1-13.48-3-19.12a19.07,19.07,0,0,0-17.84-6.42,18.51,18.51,0,0,0-15.45,23.05A19.19,19.19,0,0,0,124,75.83,18.85,18.85,0,0,0,141.74,63.4Z"/><path class="cls-1" d="M138.7,44.28c5.14,5.64,5.66,12.2,3,19.12A18.85,18.85,0,0,1,124,75.83a19.19,19.19,0,0,1-18.57-14.92,18.51,18.51,0,0,1,15.45-23.05A19.07,19.07,0,0,1,138.7,44.28Z"/><path d="M84.87,94.4h-27L42.38,70.18l-.45-.73v25H20.47V18.95H21.7c10.24,0,20.48-.06,30.72.14A31.91,31.91,0,0,1,61,20.54c9.38,2.82,14.95,10.06,15.6,19.85a26.17,26.17,0,0,1-1.93,12.36,19.44,19.44,0,0,1-10.69,10.6l-2.15.9ZM48.2,51.78c5.14-1,7.31-4.25,6.66-9.47A6.54,6.54,0,0,0,51,36.88c-3-1.41-6.15-1.48-9.63-1.48V52.49A29.66,29.66,0,0,0,48.2,51.78Z"/><path class="cls-1" d="M54.86,42.31c.65,5.22-1.52,8.43-6.66,9.47a29.66,29.66,0,0,1-6.81.71V35.4c3.48,0,6.61.07,9.63,1.48A6.54,6.54,0,0,1,54.86,42.31Z"/></g></svg>