<svg xmlns="http://www.w3.org/2000/svg" viewBox="0 0 1678.32 113.39"><defs><style>.cls-1{fill:none;stroke:#000;stroke-linecap:round;stroke-linejoin:round;stroke-width:0.5px;}.cls-2{fill:#fff;}</style></defs><title>IIH-R-wb</title><g id="Layer_1" data-name="Layer 1"><path class="cls-1" d="M122.38,76a18.83,18.83,0,0,0,17.75-12.43c2.63-6.92,2.1-13.48-3-19.12A19.05,19.05,0,0,0,119.25,38a18.51,18.51,0,0,0-15.44,23.05A19.19,19.19,0,0,0,122.38,76Z"/><path d="M962.94,0V113.39H844.45V0m63.28,37.64V94.52h21.61v-57H944.8V19H892.16V37.64ZM863.36,94.52h21.27V18.93H863.36Z"/><path class="cls-2" d="M907.73,37.5H892.16V18.9H944.8V37.36H929.34V94.18H907.73Z"/><path class="cls-2" d="M863.36,94.17V18.86h21.27V94.17Z"/><polyline points="821.78 0 821.78 113.39 697.55 113.39 697.55 0"/><path class="cls-2" d="M738.28,19.16V94.73H717.6V19.16Z"/><path class="cls-2" d="M796.2,38.51a25.9,25.9,0,0,0-6.75-3.86,18.76,18.76,0,0,0-6.54-1.25,11,11,0,0,0-6.54,1.8,5.54,5.54,0,0,0-2.53,4.71,4.55,4.55,0,0,0,1.27,3.31,11,11,0,0,0,3.32,2.26,29.17,29.17,0,0,0,4.64,1.65q2.58.7,5.12,1.5Q798.31,51.84,803,57.2t4.7,14a26,26,0,0,1-2.06,10.52,22,22,0,0,1-6,8.07A28.15,28.15,0,0,1,789.92,95a42.4,42.4,0,0,1-13,1.85,49.65,49.65,0,0,1-28-8.52l8.86-15.84A36.1,36.1,0,0,0,767,78.3a23,23,0,0,0,9,1.9q5.06,0,7.54-2.2A6.58,6.58,0,0,0,786,73a5.86,5.86,0,0,0-2.74-5.26,17.21,17.21,0,0,0-3.85-2q-2.37-.9-5.75-2-4-1.2-7.86-2.66a25,25,0,0,1-6.86-3.86,18,18,0,0,1-4.85-6.06,20.51,20.51,0,0,1-1.85-9.27,25.58,25.58,0,0,1,2-10.17,22.55,22.55,0,0,1,5.49-7.82,24.7,24.7,0,0,1,8.65-5.06,34.26,34.26,0,0,1,11.45-1.8,52.64,52.64,0,0,1,12.34,1.55,56.29,56.29,0,0,1,12.34,4.56Z"/><path d="M1678.32,0V113.39H985.6V0m352.71,18.88V94.36h21.52V53l25.8,41.41h21V18.94h-21.41v41.5l-26-41.55Zm-333.81.05V94.42h21.42V64.76h24.75V94.38h21.43V19H1050.5V46.78h-24.7V18.95ZM1154.68,94.5,1126.33,19h-22.61L1074.8,94.46h22.92l3.07-7.59h27.94l2.93,7.64Zm152.07-18.78V65.79h21.07V47h-21V37.38H1329V18.94h-43.85V94.41H1329V75.73Z"/><path class="cls-2" d="M1154.68,94.23h-23l-2.93-7.61H1100.8l-3.07,7.57H1074.8L1103.72,19h22.61Zm-32.18-25-7.6-22.6-7.57,22.6Z"/><path class="cls-2" d="M1306.75,75.51H1329V94.14h-43.78V18.88H1329V37.27H1306.8v9.56h21V65.6h-21.07Z"/><path class="cls-2" d="M1180.63,70.25v24h-21.51V18.89h1.79c10.74,0,21,0,31.72.13A29.12,29.12,0,0,1,1203,21.17a20.8,20.8,0,0,1,13.32,15.48,35.37,35.37,0,0,1-.07,16c-2.21,9.75-8.55,15.2-18.21,16.89a70,70,0,0,1-9.09.72C1186.3,70.34,1183.63,70.25,1180.63,70.25Zm.11-17.17c3.63-.05,7.09.28,10.49-.65a6.34,6.34,0,0,0,4.94-5.93c.33-3.31.21-6.58-2.9-8.8a4.74,4.74,0,0,0-1.15-.6c-3.7-1.32-7.51-1-11.39-.95Z"/><path class="cls-2" d="M1223,19h1.52c10.37,0,20.75-.14,31.12,0a28,28,0,0,1,16.39,5c5.42,3.91,8,9.48,8.67,15.94a38,38,0,0,1-.65,12.76c-2,8.88-7.53,14.41-16.34,16.4a67.06,67.06,0,0,1-10.56,1.13c-2.8.18-5.63,0-8.7,0v24H1223Zm21.58,17.19V53c2.34,0,4.51.07,6.67,0,6.92-.28,9.65-3.6,8.66-10.45a6.43,6.43,0,0,0-5.08-5.81C1251.54,35.89,1248.16,36.07,1244.63,36.17Z"/><path class="cls-2" d="M1338.31,18.84h20.91l26,41.43V18.88h21.41V94.1h-21l-25.8-41.29V94.09h-21.52Z"/><path class="cls-2" d="M1004.5,18.89h21.3V46.65h24.7V18.92h21.59V94.11h-21.43V64.58h-24.75V94.15H1004.5Z"/><path d="M1114.91,46.66l7.6,22.6h-15.17"/><path class="cls-2" d="M1436.21,19V93.89h-20.68V19Z"/><path class="cls-2" d="M1445,93.89V19h20.68l26.53,41.49V19h20.57V93.89h-20.57l-26.53-42v42Z"/><path class="cls-2" d="M1560.22,51.93h40.86a104.72,104.72,0,0,1-.53,11,37.7,37.7,0,0,1-2.1,9.18,36.24,36.24,0,0,1-6,10.55,34.57,34.57,0,0,1-8.88,7.67A42.59,42.59,0,0,1,1572.4,95a49.87,49.87,0,0,1-12.81,1.61,46.65,46.65,0,0,1-16.86-2.93,38.18,38.18,0,0,1-13.08-8.23,37.1,37.1,0,0,1-8.51-12.72,42.75,42.75,0,0,1-3-16.4,43.16,43.16,0,0,1,3-16.3,35.67,35.67,0,0,1,8.51-12.67,38.91,38.91,0,0,1,13.29-8.18,48.87,48.87,0,0,1,17.33-2.93A44.37,44.37,0,0,1,1582,21.45q9.35,5.15,14.81,15.95l-19.54,7.77q-2.73-6.26-7.09-9a18.34,18.34,0,0,0-9.93-2.73,20.63,20.63,0,0,0-8.4,1.67,18.15,18.15,0,0,0-6.46,4.74,22.5,22.5,0,0,0-4.2,7.42,29.1,29.1,0,0,0-1.52,9.69,29.54,29.54,0,0,0,1.31,9,20,20,0,0,0,3.94,7.17,17.71,17.71,0,0,0,6.51,4.69,22.77,22.77,0,0,0,9,1.66,26,26,0,0,0,5.88-.66,15.83,15.83,0,0,0,5.09-2.12,12.26,12.26,0,0,0,3.73-3.78,14.78,14.78,0,0,0,2-5.65h-16.91Z"/><path class="cls-2" d="M1660.34,28.28a23.07,23.07,0,0,1,2,9.39q0,15.83-19.09,22.47v7.6h-19.41V47.16c.84.14,1.61.27,2.32.37a12.9,12.9,0,0,0,2,.16,17.86,17.86,0,0,0,5.38-.79,14.69,14.69,0,0,0,4.38-2.16,10,10,0,0,0,2.9-3.33,8.86,8.86,0,0,0,1.06-4.27,7.93,7.93,0,0,0-2.11-5.49,7.36,7.36,0,0,0-5.7-2.32,6.6,6.6,0,0,0-5.22,2.22,8.41,8.41,0,0,0-2,5.8h-21a22.43,22.43,0,0,1,2.16-9.86,24,24,0,0,1,6-7.81,28,28,0,0,1,9.07-5.17,33.8,33.8,0,0,1,11.34-1.85,30.16,30.16,0,0,1,11.34,2.06,27.79,27.79,0,0,1,8.81,5.54A24.72,24.72,0,0,1,1660.34,28.28Z"/><path class="cls-2" d="M1645.46,79.5a12.6,12.6,0,0,1,0,9.6,12,12,0,0,1-6.59,6.59,12.6,12.6,0,0,1-9.6,0,12.3,12.3,0,0,1-4-2.63,12.49,12.49,0,0,1-2.64-4,12.73,12.73,0,0,1,0-9.6,12.13,12.13,0,0,1,6.6-6.6,12.73,12.73,0,0,1,9.6,0,12.49,12.49,0,0,1,4,2.64A12.3,12.3,0,0,1,1645.46,79.5Z"/></g><g id="Layer_2" data-name="Layer 2"><rect width="674.87" height="113.39"/><path class="cls-2" d="M645.57,96.71a12.62,12.62,0,1,1,12.75-12.39A12.54,12.54,0,0,1,645.57,96.71Z"/><path class="cls-2" d="M600.74,19.1h24.44V94.37H604.08V63.63C592.4,90.13,592,90.88,590.56,94.37h-9.44c-3.85-9.64-11.58-30.12-11.84-30.67V94.37H548V19.09h23.7l13.86,36.46S595.9,31.13,600.74,19.1Z"/><path class="cls-2" d="M123.78,96.89A41.77,41.77,0,0,1,103.45,92c-12.28-6.66-19-17.19-20.76-30.89A37,37,0,0,1,93.21,29.22a40,40,0,0,1,21-11.61c14.67-3,27.91.08,39,10.25,9.73,8.89,13.59,20.15,12,33.24-1.35,10.93-6,20.08-14.72,27C142.73,94.31,133.67,96.91,123.78,96.89Zm.2-21.06A18.83,18.83,0,0,0,141.74,63.4c2.62-6.92,2.1-13.48-3-19.12a19.06,19.06,0,0,0-17.84-6.43,18.51,18.51,0,0,0-15.44,23.05A19.17,19.17,0,0,0,124,75.83Z"/><path class="cls-2" d="M402.88,19h1.22c9.52,0,19-.17,28.55.09a37.64,37.64,0,0,1,7.9,74.16,42.35,42.35,0,0,1-9.47,1.16H404.4c-.43,0-1.12,0-1.53,0Zm21.39,56.68c4,0,7.63.06,11.16-1.22a16,16,0,0,0,10.42-11.15,24.33,24.33,0,0,0,.81-8.62c-.65-9-6.18-15.14-15-16.64a42.15,42.15,0,0,0-7.35-.25Z"/><path class="cls-2" d="M57.86,94.4,42.38,70.17l-.45-.72V94.39H20.47V18.95H21.7c10.24,0,20.48-.06,30.71.13A32.15,32.15,0,0,1,61,20.53c9.37,2.83,15,10.06,15.59,19.85a26.2,26.2,0,0,1-1.92,12.36,19.42,19.42,0,0,1-10.7,10.6l-2.15.9L84.87,94.39Zm-16.47-59V52.49a29.79,29.79,0,0,0,6.81-.71c5.14-1,7.31-4.25,6.65-9.47A6.52,6.52,0,0,0,51,36.88C48,35.46,44.87,35.4,41.39,35.4Z"/><path class="cls-2" d="M400,94.37H373L357.54,70.2l-.44-.65c0,2.27-.07,4-.07,6.56,0,2,0,4.07,0,6.1v5.88c0,2,0,4.31,0,6.29H335.78V19c.95,0,.95,0,1.44,0,9.73,0,19.47,0,29.2,0a31.1,31.1,0,0,1,11.7,2.23,20.42,20.42,0,0,1,13,15.25,26.1,26.1,0,0,1-1.38,16.43,19.44,19.44,0,0,1-10.78,10.53c-.6.25-1.21.48-2,.8ZM356.42,52.08c3.08,0,7-.08,9.58-1.12,5.42-2.25,5.06-10.85,1.5-13.27-3.38-2.29-7.14-2.36-11.08-2.32Z"/><path class="cls-2" d="M490.32,86.88l-3.06,7.49H464.38c.36-1.07.36-1.07.48-1.41Q479,56.08,493.26,19.09h22.67c9.4,25,18.94,50.23,28.38,75.28-3.78,0-16.66,0-23.07,0l-2.87-7.51ZM504.68,47.3l-.17-.5s-.08.2-.19.5l-7.43,22.14H512.1Z"/><path class="cls-2" d="M283.81,94.37V19.08h43.91c.22,6.11.06,12.23.11,18.6H305.49V47l6.85.05h13.88c0,2.09,0,15.21,0,18.77H305.46v9.83c7.39.13,14.89,0,22.36.09V94.37Z"/><path class="cls-2" d="M277.31,19.09V37.64H261.82V94.38H240.17c-.18-4.64-.06-9.33-.08-14s0-9.44,0-14.17V52.26c0-4.71,0-9.77,0-14.56h-5.24c-1.67-.06-3.34,0-5,0h-5.28V19.09Z"/><path class="cls-2" d="M203.43,94.45H181.8c0-2.73,0-5.38-.05-8s0-5.38,0-8.06V37.75c-5.61,0-9.78,0-15.37,0,0-1.83,0-16,0-18.69l52.6,0c0,1.89,0,14.08,0,18.66H203.43Z"/></g></svg>