<?xml version="1.0" encoding="utf-8"?>
<!-- Generator: Adobe Illustrator 21.1.0, SVG Export Plug-In . SVG Version: 6.00 Build 0)  -->
<svg version="1.1" id="Layer_1" xmlns="http://www.w3.org/2000/svg" xmlns:xlink="http://www.w3.org/1999/xlink" x="0px" y="0px"
	 viewBox="0 0 1678.3 113.4" style="enable-background:new 0 0 1678.3 113.4;" xml:space="preserve">
<style type="text/css">
	.st0{fill:none;}
	.st1{fill:#FFFFFF;}
</style>
<title>iih-r-bw</title>
<g id="Layer_1_1_">
	<path class="st0" d="M944.8,19v18.4h-15.5v56.8h-21.6V37.5h-15.6V19H944.8z"/>
	<path class="st1" d="M944.8,18.9V19h-52.6v-0.1H944.8z"/>
	<path class="st0" d="M884.6,18.9v75.2h-21.3V18.9H884.6z"/>
	<path class="st1" d="M884.6,18.9L884.6,18.9l-21.3,0.1v-0.1H884.6z"/>
	<path class="st1" d="M863.4,94.5h21.3V18.9h-21.3V94.5z M962.9,0v113.4H844.5V0H962.9z M944.8,37.5V18.9h-52.6v18.7h15.6v56.9h21.6
		v-57L944.8,37.5z"/>
	<path class="st1" d="M821.8,0v113.4H697.5V0H821.8z M807.7,71.2c0-5.7-1.6-10.4-4.7-14c-3.1-3.6-8.1-6.5-14.8-8.6
		c-1.7-0.5-3.4-1-5.1-1.5c-1.6-0.4-3.1-1-4.6-1.7c-1.2-0.5-2.4-1.3-3.3-2.2c-0.9-0.9-1.3-2.1-1.3-3.3c0-1.9,0.9-3.7,2.5-4.7
		c1.9-1.3,4.2-1.9,6.5-1.8c2.2,0,4.5,0.5,6.5,1.2c2.4,0.9,4.7,2.2,6.8,3.9l8.2-15.3c-3.9-2-8.1-3.5-12.3-4.6c-4-1-8.2-1.5-12.3-1.5
		c-3.9-0.1-7.8,0.6-11.5,1.8c-3.2,1.1-6.1,2.8-8.7,5.1c-2.4,2.2-4.2,4.8-5.5,7.8c-1.4,3.2-2,6.7-2,10.2c-0.1,3.2,0.5,6.4,1.8,9.3
		c1.2,2.3,2.8,4.4,4.8,6.1c2.1,1.6,4.4,2.9,6.9,3.9c2.6,1,5.2,1.8,7.9,2.7c2.3,0.7,4.2,1.4,5.8,2c1.4,0.5,2.7,1.2,3.8,2
		c1.8,1.1,2.9,3.1,2.8,5.2c0,2-0.9,3.8-2.5,5c-1.7,1.5-4.2,2.2-7.5,2.2c-3.1,0-6.2-0.7-9-1.9c-3.3-1.5-6.4-3.4-9.2-5.8l-8.9,15.8
		c8.3,5.6,18,8.6,28,8.5c4.4,0.1,8.8-0.6,13-1.9c3.5-1.1,6.8-2.8,9.7-5.2c2.6-2.2,4.6-4.9,6-8.1C807.1,78.4,807.8,74.8,807.7,71.2z
		 M738.3,94.7V19.2h-20.7v75.6H738.3z"/>
	<path class="st0" d="M803,57.2c3.1,3.6,4.7,8.2,4.7,14c0.1,3.6-0.7,7.2-2.1,10.5c-1.4,3.1-3.4,5.9-6,8.1c-2.9,2.4-6.2,4.1-9.7,5.2
		c-4.2,1.3-8.6,1.9-13,1.9c-10,0-19.7-2.9-28-8.5l8.9-15.8c2.8,2.4,5.9,4.3,9.2,5.8c2.8,1.2,5.9,1.9,9,1.9c3.4,0,5.9-0.7,7.5-2.2
		c2.4-1.9,3.2-5.2,1.8-8c-0.5-0.9-1.2-1.7-2.1-2.3c-1.2-0.8-2.5-1.5-3.8-2c-1.6-0.6-3.5-1.3-5.8-2c-2.7-0.8-5.3-1.7-7.9-2.7
		c-2.5-0.9-4.8-2.2-6.9-3.9c-2-1.6-3.7-3.7-4.8-6.1c-1.3-2.9-2-6.1-1.8-9.3c0-3.5,0.6-7,2-10.2c1.2-3,3.1-5.6,5.5-7.8
		c2.5-2.3,5.5-4,8.7-5.1c3.7-1.2,7.6-1.9,11.5-1.8c4.2,0,8.3,0.5,12.3,1.5c4.3,1,8.4,2.6,12.3,4.6l-8.3,15.4c-2-1.6-4.3-2.9-6.8-3.9
		c-2.1-0.8-4.3-1.2-6.5-1.2c-2.3-0.1-4.6,0.5-6.5,1.8c-1.6,1-2.5,2.8-2.5,4.7c0,1.2,0.4,2.4,1.3,3.3c1,0.9,2.1,1.7,3.3,2.2
		c1.5,0.7,3,1.2,4.6,1.7c1.7,0.5,3.4,1,5.1,1.5C794.9,50.8,799.9,53.6,803,57.2z"/>
	<rect x="717.6" y="19.2" class="st0" width="20.7" height="75.6"/>
	<path class="st1" d="M1260,42.5c1,6.9-1.8,10.2-8.7,10.5c-2.2,0.1-4.3,0-6.7,0V36.2c3.5-0.1,6.9-0.3,10.2,0.6
		C1257.7,37.3,1259.8,39.7,1260,42.5z"/>
	<path class="st1" d="M1193.3,37.7c3.1,2.2,3.2,5.5,2.9,8.8c-0.1,2.9-2.1,5.3-4.9,5.9c-3.4,0.9-6.9,0.6-10.5,0.7V36.1
		c3.9,0,7.7-0.4,11.4,1C1192.5,37.3,1192.9,37.5,1193.3,37.7z"/>
	<path class="st1" d="M1122.5,69.3h-15.2c2.5-7.4,4.9-14.6,7.6-22.6C1117.6,54.6,1120,61.8,1122.5,69.3z"/>
	<path class="st1" d="M1074.8,94.2h22.9c1-2.6,2.1-5.1,3.1-7.6h27.9l2.9,7.6h23L1126.3,19h-22.6C1094.1,44,1084.5,69,1074.8,94.2z
		 M1072.1,94.1V18.9h-21.6v27.7h-24.7V18.9h-21.3v75.3h21.4V64.6h24.8v29.5H1072.1z M1678.3,0v113.4H985.6V0H1678.3z M1662.3,37.6
		c0-3.2-0.7-6.4-2-9.4c-1.3-3-3.3-5.7-5.7-8c-2.6-2.4-5.6-4.3-8.8-5.5c-3.6-1.4-7.5-2.1-11.3-2.1c-3.9,0-7.7,0.6-11.3,1.9
		c-3.3,1.1-6.4,2.9-9.1,5.2c-2.5,2.2-4.6,4.8-6,7.8c-1.5,3.1-2.2,6.5-2.2,9.9h21c-0.1-2.1,0.6-4.2,2-5.8c1.3-1.5,3.2-2.3,5.2-2.2
		c2.1-0.1,4.2,0.8,5.7,2.3c1.4,1.5,2.1,3.5,2.1,5.5c0,1.5-0.4,3-1.1,4.3c-0.7,1.3-1.7,2.4-2.9,3.3c-1.3,1-2.8,1.7-4.4,2.2
		c-1.7,0.5-3.6,0.8-5.4,0.8c-0.7,0-1.3-0.1-2-0.2c-0.7-0.1-1.5-0.2-2.3-0.4v20.6h19.4v-7.6C1656,55.7,1662.3,48.2,1662.3,37.6
		L1662.3,37.6z M1646.4,84.3c0-1.7-0.3-3.3-1-4.8c-0.6-1.5-1.5-2.9-2.6-4c-1.2-1.1-2.5-2-4-2.6c-3.1-1.3-6.5-1.3-9.6,0
		c-3,1.2-5.4,3.6-6.6,6.6c-1.3,3.1-1.3,6.5,0,9.6c0.6,1.5,1.5,2.8,2.6,4c1.1,1.1,2.5,2,4,2.6c3.1,1.3,6.5,1.3,9.6,0
		c3-1.2,5.4-3.6,6.6-6.6C1646.1,87.6,1646.4,86,1646.4,84.3z M1601.1,51.9h-40.9v15.3h16.9c-0.3,2-1,3.9-2,5.7
		c-1,1.5-2.2,2.8-3.7,3.8c-1.6,1-3.3,1.7-5.1,2.1c-1.9,0.4-3.9,0.7-5.9,0.7c-3.1,0.1-6.1-0.5-9-1.7c-2.5-1-4.7-2.7-6.5-4.7
		c-1.8-2.1-3.1-4.5-3.9-7.2c-0.9-2.9-1.3-6-1.3-9c0-3.3,0.5-6.6,1.5-9.7c0.9-2.7,2.3-5.2,4.2-7.4c1.8-2,4-3.7,6.5-4.8
		c2.7-1.1,5.5-1.7,8.4-1.7c3.5-0.1,6.9,0.9,9.9,2.7c2.9,1.8,5.3,4.8,7.1,9l19.5-7.8c-3.7-7.2-8.6-12.5-14.8-15.9
		c-6.7-3.5-14.2-5.3-21.7-5.1c-5.9-0.1-11.8,0.9-17.3,2.9c-4.9,1.8-9.5,4.6-13.3,8.2c-3.7,3.6-6.6,7.9-8.5,12.7
		c-2,5.2-3.1,10.7-3,16.3c-0.1,5.6,0.9,11.2,3,16.4c1.9,4.8,4.8,9.1,8.5,12.7c3.8,3.6,8.2,6.4,13.1,8.2c5.4,2,11.1,3,16.9,2.9
		c4.3,0,8.6-0.5,12.8-1.6c3.9-1,7.7-2.6,11.2-4.7c3.4-2,6.4-4.6,8.9-7.7c2.6-3.2,4.6-6.7,6-10.5c1.1-3,1.8-6.1,2.1-9.2
		C1600.9,59.3,1601.1,55.6,1601.1,51.9L1601.1,51.9z M1512.7,93.9V19h-20.6v41.5L1465.6,19H1445v74.9h20.7v-42l26.5,42L1512.7,93.9z
		 M1436.2,93.9V19h-20.7v74.9L1436.2,93.9z M1406.6,94.1V18.9h-21.4v41.4c-9-14.4-17.5-28-26-41.4h-20.9v75.2h21.5V52.8
		c8.9,14.3,17.4,27.9,25.8,41.3L1406.6,94.1z M1329.1,37.3V18.9h-43.9v75.3h43.8V75.5h-22.2v-9.9h21.1V46.8h-21v-9.6L1329.1,37.3z
		 M1280.1,52.7c0.9-4.2,1.2-8.5,0.7-12.8c-0.7-6.5-3.2-12-8.7-15.9c-4.8-3.3-10.5-5.1-16.4-5c-10.4-0.1-20.8,0-31.1,0h-1.5v75.2
		h21.4v-24c3.1,0,5.9,0.1,8.7,0c3.5-0.1,7.1-0.5,10.6-1.1C1272.6,67.1,1278.1,61.6,1280.1,52.7L1280.1,52.7z M1216.2,52.7
		c1.2-5.3,1.3-10.7,0.1-16c-1.4-7.1-6.5-13-13.3-15.5c-3.3-1.4-6.8-2.1-10.4-2.2c-10.7-0.1-21-0.1-31.7-0.1h-1.8v75.4h21.5v-24
		c3,0,5.7,0.1,8.3,0c3,0,6.1-0.3,9.1-0.7C1207.7,67.8,1214.1,62.4,1216.2,52.7L1216.2,52.7z"/>
	<path class="st0" d="M1660.3,28.3c1.3,3,2,6.2,2,9.4c0,10.6-6.4,18-19.1,22.5v7.6h-19.4V47.2c0.8,0.1,1.6,0.3,2.3,0.4
		c0.7,0.1,1.3,0.2,2,0.2c1.8,0,3.6-0.3,5.4-0.8c1.6-0.5,3.1-1.2,4.4-2.2c1.2-0.9,2.2-2,2.9-3.3c0.7-1.3,1.1-2.8,1.1-4.3
		c0-2-0.7-4-2.1-5.5c-1.5-1.6-3.6-2.4-5.7-2.3c-2-0.1-3.9,0.7-5.2,2.2c-1.4,1.6-2.1,3.7-2,5.8h-21c0-3.4,0.7-6.8,2.2-9.9
		c1.4-3,3.5-5.6,6-7.8c2.7-2.3,5.7-4,9.1-5.2c3.6-1.3,7.5-1.9,11.3-1.9c3.9,0,7.7,0.7,11.3,2.1c3.3,1.3,6.2,3.2,8.8,5.5
		C1657,22.5,1659,25.2,1660.3,28.3z"/>
	<path class="st0" d="M1645.5,79.5c1.3,3.1,1.3,6.5,0,9.6c-1.2,3-3.6,5.4-6.6,6.6c-3.1,1.3-6.5,1.3-9.6,0c-1.5-0.6-2.9-1.5-4-2.6
		c-1.1-1.2-2-2.5-2.6-4c-1.3-3.1-1.3-6.5,0-9.6c1.2-3,3.6-5.4,6.6-6.6c3.1-1.3,6.5-1.3,9.6,0c1.5,0.6,2.8,1.5,4,2.6
		C1644,76.6,1644.9,78,1645.5,79.5z"/>
	<path class="st0" d="M1560.2,51.9h40.9c0,3.7-0.2,7.3-0.5,11c-0.3,3.1-1,6.2-2.1,9.2c-1.4,3.8-3.4,7.4-6,10.5
		c-2.5,3-5.5,5.6-8.9,7.7c-3.5,2.1-7.2,3.7-11.2,4.7c-4.2,1.1-8.5,1.6-12.8,1.6c-5.8,0.1-11.5-0.9-16.9-2.9
		c-4.9-1.8-9.3-4.6-13.1-8.2c-3.7-3.6-6.6-7.9-8.5-12.7c-2.1-5.2-3.1-10.8-3-16.4c-0.1-5.6,1-11.1,3-16.3c1.9-4.8,4.8-9.1,8.5-12.7
		c3.8-3.6,8.4-6.4,13.3-8.2c5.6-2,11.4-3,17.3-2.9c7.6-0.2,15,1.6,21.7,5.2c6.2,3.4,11.2,8.7,14.8,15.9l-19.5,7.8
		c-1.8-4.2-4.2-7.2-7.1-9c-3-1.8-6.4-2.8-9.9-2.7c-2.9,0-5.8,0.5-8.4,1.7c-2.5,1.1-4.7,2.7-6.5,4.8c-1.9,2.2-3.3,4.7-4.2,7.4
		c-1.1,3.1-1.6,6.4-1.5,9.7c0,3,0.4,6.1,1.3,9c0.8,2.6,2.1,5.1,3.9,7.2c1.8,2,4,3.7,6.5,4.7c2.9,1.2,5.9,1.7,9,1.7
		c2,0,4-0.2,5.9-0.7c1.8-0.4,3.5-1.1,5.1-2.1c1.5-1,2.8-2.3,3.7-3.8c1-1.7,1.7-3.6,2-5.7h-16.9V51.9z"/>
	<polygon class="st0" points="1512.7,19 1512.7,93.9 1492.2,93.9 1465.6,51.9 1465.6,93.9 1445,93.9 1445,19 1465.6,19 1492.2,60.5 
		1492.2,19 	"/>
	<rect x="1415.5" y="19" class="st0" width="20.7" height="74.8"/>
	<path class="st0" d="M1406.6,18.9v75.2h-21c-8.4-13.4-16.9-27-25.8-41.3v41.3h-21.5V18.8h20.9c8.4,13.5,17,27.1,26,41.4V18.9
		H1406.6z"/>
	<path class="st0" d="M1329.1,18.9v18.4h-22.2v9.6h21v18.8h-21.1v9.9h22.3v18.6h-43.8V18.9H1329.1z"/>
	<path class="st0" d="M1280.7,39.9c0.5,4.3,0.3,8.6-0.7,12.8c-2,8.9-7.5,14.4-16.3,16.4c-3.5,0.7-7,1-10.6,1.1c-2.8,0.2-5.6,0-8.7,0
		v24H1223V19h1.5c10.4,0,20.8-0.1,31.1,0c5.9-0.1,11.6,1.7,16.4,5C1277.5,27.9,1280,33.5,1280.7,39.9z M1251.3,53
		c6.9-0.3,9.7-3.6,8.7-10.5c-0.2-2.9-2.3-5.2-5.1-5.8c-3.3-0.8-6.7-0.7-10.2-0.6V53C1247,53,1249.1,53.1,1251.3,53z"/>
	<path class="st0" d="M1216.3,36.6c1.2,5.3,1.2,10.7-0.1,16c-2.2,9.8-8.6,15.2-18.2,16.9c-3,0.4-6,0.7-9.1,0.7c-2.7,0.1-5.3,0-8.3,0
		v24h-21.5V18.9h1.8c10.7,0,21,0,31.7,0.1c3.6,0.1,7.1,0.8,10.4,2.2C1209.8,23.6,1214.9,29.5,1216.3,36.6z M1196.2,46.5
		c0.3-3.3,0.2-6.6-2.9-8.8c-0.4-0.3-0.7-0.5-1.2-0.6c-3.7-1.3-7.5-1-11.4-1v16.9c3.6,0,7.1,0.3,10.5-0.7
		C1194,51.8,1196.1,49.4,1196.2,46.5L1196.2,46.5z"/>
	<path class="st0" d="M1154.7,94.2h-23l-2.9-7.6h-27.9c-1,2.4-2,5-3.1,7.6h-22.9c9.7-25.2,19.3-50.2,28.9-75.2h22.6L1154.7,94.2z
		 M1107.3,69.2h15.2c-2.5-7.5-4.9-14.7-7.6-22.6C1112.2,54.6,1109.8,61.9,1107.3,69.2L1107.3,69.2z"/>
	<path class="st0" d="M1072.1,18.9v75.2h-21.4V64.6h-24.8v29.6h-21.4V18.9h21.3v27.8h24.7V18.9H1072.1z"/>
</g>
<g id="Layer_2">
	<path class="st1" d="M402.9,94.4c0.4,0,1.1,0,1.5,0h26.7c3.2,0,6.4-0.4,9.5-1.2c20.2-4.9,32.6-25.2,27.7-45.4
		c-4-16.5-18.6-28.3-35.6-28.8c-9.5-0.3-19-0.1-28.5-0.1h-1.2L402.9,94.4z M400,94.4l-23.1-30.1c0.8-0.3,1.4-0.5,2-0.8
		c4.9-1.9,8.8-5.7,10.8-10.5c2.2-5.2,2.7-10.9,1.4-16.4c-1.4-7-6.3-12.8-13-15.2c-3.7-1.5-7.7-2.2-11.7-2.2c-9.7,0-19.5,0-29.2,0
		c-0.5,0-0.5,0-1.4,0v75.4H357V82.2c0-2,0-4.1,0-6.1c0-2.5,0.1-4.3,0.1-6.6l0.4,0.7L373,94.4H400z M674.9,0v113.4H0V0H674.9z
		 M658.3,84.3c0.1-7-5.4-12.7-12.4-12.9c-7-0.1-12.7,5.4-12.9,12.4c-0.1,7,5.4,12.7,12.4,12.9c0,0,0.1,0,0.1,0
		C652.5,96.8,658.2,91.3,658.3,84.3C658.3,84.3,658.3,84.3,658.3,84.3z M625.2,94.4V19.1h-24.4c-4.8,12-15.2,36.5-15.2,36.5
		l-13.9-36.5H548v75.3h21.3V63.7c0.3,0.5,8,21,11.8,30.7h9.4c1.5-3.5,1.8-4.2,13.5-30.8v30.8H625.2z M521.2,94.4h23.1
		c-9.4-25.1-19-50.3-28.4-75.3h-22.7c-9.5,24.7-19,49.3-28.4,73.9c-0.1,0.3-0.1,0.3-0.5,1.4h22.9c1-2.5,2-5,3.1-7.5h28.1L521.2,94.4
		z M327.8,94.4V75.8c-7.5-0.1-15,0-22.4-0.1v-9.8h20.8V47.1h-13.9h-6.9v-9.4h22.3c0-6.4,0.1-12.5-0.1-18.6h-43.9v75.3L327.8,94.4z
		 M277.3,37.6V19.1h-52.8v18.6h5.3c1.7,0,3.4,0,5,0c1.9,0,3.3,0,5.2,0v28.5c0,4.7,0,9.4,0,14.2s-0.1,9.4,0.1,14h21.7V37.6H277.3z
		 M219,37.8c0-4.6,0-16.8,0-18.7h-52.6c0,2.7,0,16.9,0,18.7c5.6,0,9.8,0,15.4,0v48.6c0,2.7,0,5.3,0.1,8h21.6V37.8H219z M165.3,61.1
		c1.6-13.1-2.2-24.4-12-33.2c-11.1-10.2-24.4-13.3-39-10.3c-8,1.6-15.3,5.7-21,11.6c-8.4,8.3-12.4,20.2-10.6,31.9
		c1.8,13.7,8.5,24.2,20.8,30.9c6.3,3.3,13.3,5,20.3,4.9c9.9,0,19-2.6,26.8-8.8C159.2,81.2,163.9,72,165.3,61.1z M57.9,94.4h27
		L61.8,64.2l2.2-0.9c4.8-2,8.7-5.8,10.7-10.6c1.6-3.9,2.3-8.1,1.9-12.4c-0.7-9.8-6.2-17-15.6-19.8c-2.8-0.9-5.6-1.4-8.5-1.5
		c-10.2-0.2-20.5-0.1-30.7-0.1h-1.2v75.4h21.5v-25l0.5,0.7L57.9,94.4z"/>
	<path class="st0" d="M645.7,71.5c7,0,12.6,5.7,12.6,12.7c0,7-5.7,12.6-12.7,12.6c-7,0-12.6-5.7-12.6-12.7c0,0,0,0,0,0
		C633.1,77.1,638.7,71.5,645.7,71.5C645.7,71.5,645.7,71.5,645.7,71.5z"/>
	<path class="st0" d="M625.2,19.1v75.3h-21.1V63.6c-11.7,26.5-12,27.3-13.5,30.8h-9.4c-3.8-9.7-11.6-30.1-11.8-30.7v30.7H548V19.1
		h23.7l13.9,36.5c0,0,10.3-24.4,15.2-36.4L625.2,19.1z"/>
	<path class="st0" d="M544.3,94.4h-23.1l-2.9-7.5h-28.1c-1,2.5-2,5-3.1,7.5h-22.9c0.4-1.1,0.4-1.1,0.5-1.4
		c9.4-24.6,18.9-49.2,28.4-73.9h22.7C525.3,44.1,534.9,69.3,544.3,94.4z M496.9,69.4h15.2c-2.5-7.5-5-14.8-7.4-22.1l-0.2-0.5
		c0,0-0.1,0.2-0.2,0.5C501.9,54.6,499.4,61.9,496.9,69.4z"/>
	<path class="st1" d="M504.3,47.3c0.1-0.3,0.2-0.5,0.2-0.5l0.2,0.5c2.5,7.3,4.9,14.6,7.4,22.1h-15.2
		C499.4,61.9,501.9,54.6,504.3,47.3z"/>
	<path class="st0" d="M468.9,52.4c2.1,18.8-10,36.2-28.4,40.8c-3.1,0.7-6.3,1.1-9.5,1.2h-26.7c-0.4,0-1.1,0-1.5,0V19h1.2
		c9.5,0,19-0.2,28.5,0.1C451.3,19.8,466.6,33.9,468.9,52.4z M445.9,63.3c0.8-2.8,1.1-5.7,0.8-8.6c-0.6-9-6.2-15.1-15-16.6
		c-2.4-0.3-4.9-0.4-7.4-0.2v37.9c4,0,7.6,0.1,11.2-1.2C440.6,72.7,444.5,68.5,445.9,63.3z"/>
	<path class="st1" d="M446.6,54.7c0.3,2.9,0,5.8-0.8,8.6c-1.4,5.2-5.3,9.4-10.4,11.2c-3.5,1.3-7.2,1.2-11.2,1.2V37.8
		c2.5-0.1,4.9,0,7.4,0.2C440.5,39.5,446,45.7,446.6,54.7z"/>
	<path class="st0" d="M400,94.4h-27l-15.5-24.2l-0.4-0.7c0,2.3-0.1,4-0.1,6.6c0,2,0,4.1,0,6.1v12.2h-21.2V19c0.9,0,0.9,0,1.4,0
		c9.7,0,19.5,0,29.2,0c4,0,8,0.7,11.7,2.2c6.7,2.5,11.6,8.2,13,15.2c1.3,5.5,0.8,11.2-1.4,16.4c-2,4.8-5.9,8.6-10.8,10.5
		c-0.6,0.2-1.2,0.5-2,0.8L400,94.4z M366,51c5.4-2.2,5.1-10.8,1.5-13.3c-3.4-2.3-7.1-2.4-11.1-2.3v16.7C359.5,52.1,363.5,52,366,51z
		"/>
	<path class="st1" d="M367.5,37.7c3.6,2.4,3.9,11-1.5,13.3c-2.5,1-6.5,1.1-9.6,1.1V35.4C360.4,35.3,364.1,35.4,367.5,37.7z"/>
	<path class="st0" d="M327.8,75.8v18.6h-44V19.1h43.9c0.2,6.1,0.1,12.2,0.1,18.6h-22.3V47h6.9h13.9v18.9h-20.8v9.8
		C312.9,75.8,320.4,75.7,327.8,75.8z"/>
	<path class="st0" d="M277.3,19.1v18.5h-15.5v56.8h-21.7c-0.2-4.7,0-9.3-0.1-14s0-9.4,0-14.2V37.7c-2,0-3.4,0-5.2,0
		c-1.7-0.1-3.3,0-5,0h-5.3V19.1H277.3z"/>
	<path class="st0" d="M218.9,19.1c0,1.9,0,14.1,0,18.7h-15.5v56.7h-21.6c0-2.7-0.1-5.4-0.1-8V37.7c-5.6,0-9.8,0-15.4,0
		c0-1.8,0-16,0-18.7L218.9,19.1z"/>
	<path class="st0" d="M153.3,27.9c9.7,8.9,13.6,20.1,12,33.2c-1.4,10.9-6,20.1-14.7,27c-7.8,6.2-16.9,8.8-26.8,8.8
		c-7.1,0.1-14.1-1.6-20.4-4.9c-12.3-6.7-19-17.2-20.8-30.9c-1.8-11.7,2.1-23.6,10.5-31.9c5.7-5.9,13-10,21-11.6
		C128.9,14.6,142.2,17.7,153.3,27.9z M141.7,63.4c2.6-6.9,2.1-13.5-3-19.1c-4.4-5.2-11.2-7.6-17.8-6.4
		c-10.1,1.4-17.2,10.7-15.9,20.8c0.1,0.8,0.2,1.5,0.4,2.3c2,8.7,9.7,14.8,18.5,14.9C131.9,75.8,139,70.9,141.7,63.4z"/>
	<path class="st1" d="M138.7,44.3c5.1,5.6,5.7,12.2,3,19.1c-2.7,7.5-9.8,12.4-17.7,12.4c-8.9-0.1-16.6-6.2-18.6-14.9
		c-2.6-9.9,3.3-20,13.2-22.6c0.7-0.2,1.5-0.3,2.3-0.4C127.5,36.7,134.3,39.1,138.7,44.3z"/>
	<path class="st0" d="M84.9,94.4h-27L42.4,70.2l-0.5-0.7v25H20.5V18.9h1.2c10.2,0,20.5-0.1,30.7,0.1c2.9,0.1,5.8,0.6,8.6,1.5
		c9.4,2.8,14.9,10.1,15.6,19.8c0.4,4.2-0.3,8.5-1.9,12.4c-2,4.8-5.8,8.6-10.7,10.6l-2.2,0.9L84.9,94.4z M48.2,51.8
		c5.1-1,7.3-4.2,6.7-9.5c-0.2-2.4-1.7-4.5-3.9-5.4c-3-1.4-6.2-1.5-9.6-1.5v17.1C43.7,52.5,46,52.3,48.2,51.8z"/>
	<path class="st1" d="M54.9,42.3c0.7,5.2-1.5,8.4-6.7,9.5c-2.2,0.5-4.5,0.7-6.8,0.7V35.4c3.5,0,6.6,0.1,9.6,1.5
		C53.2,37.9,54.7,39.9,54.9,42.3z"/>
</g>
</svg>
