<svg xmlns="http://www.w3.org/2000/svg" viewBox="0 0 981.11 113.39"><defs><style>.cls-1{fill:#fff;}</style></defs><title>iih</title><g id="Layer_1" data-name="Layer 1"><path d="M247.26,18.75V37.13H231.8V94H210.19V37.28H194.61V18.75Z"/><path d="M247.26,18.68v.07H194.61v-.07Z"/><path d="M187.08,18.71V93.95H165.82V18.71Z"/><path d="M187.08,18.64v.07H165.82v-.07Z"/><path class="cls-1" d="M165.82,94.29h21.26V18.64H165.82V94.29ZM265.39-.22V113.16H146.91V-.22ZM247.26,37.27V18.68H194.61V37.42h15.58V94.3H231.8v-57Z"/><path class="cls-1" d="M124.23-.22V113.16H0V-.22ZM110.15,71q0-8.62-4.69-14T90.63,48.41c-1.68-.54-3.39-1-5.11-1.51a27.86,27.86,0,0,1-4.64-1.65A11.1,11.1,0,0,1,77.55,43a4.57,4.57,0,0,1-1.26-3.31A5.52,5.52,0,0,1,78.82,35a11,11,0,0,1,6.54-1.81,18.65,18.65,0,0,1,6.54,1.26,25.85,25.85,0,0,1,6.75,3.85l8.23-15.33a56.65,56.65,0,0,0-12.34-4.56,52.92,52.92,0,0,0-12.35-1.55,34.28,34.28,0,0,0-11.44,1.8A24.53,24.53,0,0,0,62.1,23.7a22.51,22.51,0,0,0-5.49,7.82,25.61,25.61,0,0,0-2,10.17A20.51,20.51,0,0,0,56.5,51,18.08,18.08,0,0,0,61.36,57a25.07,25.07,0,0,0,6.86,3.86q3.84,1.45,7.85,2.65c2.26.74,4.17,1.4,5.75,2a17.27,17.27,0,0,1,3.86,2,6.59,6.59,0,0,1,2.11,2.31,6.48,6.48,0,0,1,.63,3,6.59,6.59,0,0,1-2.48,5C84.29,79.24,81.77,80,78.4,80a23,23,0,0,1-9-1.91,35.6,35.6,0,0,1-9.18-5.81L51.39,88.1a49.66,49.66,0,0,0,28,8.52,42.2,42.2,0,0,0,13-1.86,28,28,0,0,0,9.71-5.21,22,22,0,0,0,6-8.07A25.88,25.88,0,0,0,110.15,71ZM40.73,94.51V18.94H20.06V94.51Z"/><path d="M105.46,57q4.68,5.35,4.69,14a25.88,25.88,0,0,1-2.06,10.52,22,22,0,0,1-6,8.07,28,28,0,0,1-9.71,5.21,42.2,42.2,0,0,1-13,1.86,49.66,49.66,0,0,1-28-8.52l8.86-15.84a35.6,35.6,0,0,0,9.18,5.81,23,23,0,0,0,9,1.91c3.37,0,5.89-.74,7.54-2.21a6.59,6.59,0,0,0,2.48-5,6.48,6.48,0,0,0-.63-3,6.59,6.59,0,0,0-2.11-2.31,17.27,17.27,0,0,0-3.86-2c-1.58-.61-3.49-1.27-5.75-2q-4-1.2-7.85-2.65A25.07,25.07,0,0,1,61.36,57,18.08,18.08,0,0,1,56.5,51a20.51,20.51,0,0,1-1.84-9.27,25.61,25.61,0,0,1,2-10.17A22.51,22.51,0,0,1,62.1,23.7a24.53,24.53,0,0,1,8.65-5.06,34.28,34.28,0,0,1,11.44-1.8,52.92,52.92,0,0,1,12.35,1.55,56.65,56.65,0,0,1,12.34,4.56L98.65,38.28a25.85,25.85,0,0,0-6.75-3.85,18.65,18.65,0,0,0-6.54-1.26A11,11,0,0,0,78.82,35a5.52,5.52,0,0,0-2.53,4.71A4.57,4.57,0,0,0,77.55,43a11.1,11.1,0,0,0,3.33,2.25,27.86,27.86,0,0,0,4.64,1.65c1.72.47,3.43,1,5.11,1.51Q100.77,51.62,105.46,57Z"/><rect x="20.06" y="18.94" width="20.67" height="75.57"/><path class="cls-1" d="M377.25,94.46h22.93q1.59-3.91,3.07-7.59h27.94c1,2.59,2,5.14,2.93,7.63h23L428.78,19h-22.6C396.55,44.13,386.94,69.2,377.25,94.46Zm-2.7-.08V19H353v27.8h-24.7V18.95H307V94.42h21.41V64.76h24.75V94.38ZM980.78,0V113.39H288V0ZM709,94.37V18.94h-21.4v41.5c-9-14.39-17.51-28-26-41.55h-20.9V94.36h21.52V53l25.79,41.4Zm-77.53-57V18.94H587.64V94.41h43.78V75.73H609.2V65.79h21.07V47h-21V37.38Z"/><path d="M457.13,94.23h-23l-2.93-7.61H403.25l-3.07,7.57H377.25L406.17,19h22.61ZM425,69.26l-7.6-22.6-7.57,22.6Z"/><path d="M609.2,75.51h22.22V94.14H587.64V18.88H631.5V37.27H609.25v9.56h21V65.6H609.2Z"/><path d="M483.08,70.25v24H461.57V18.89h1.79c10.74,0,21,0,31.72.13a29.12,29.12,0,0,1,10.38,2.15,20.8,20.8,0,0,1,13.32,15.48,35.37,35.37,0,0,1-.07,16c-2.21,9.75-8.55,15.2-18.21,16.89a70,70,0,0,1-9.09.72C488.75,70.34,486.08,70.25,483.08,70.25Zm.11-17.17c3.63-.05,7.09.28,10.49-.65a6.34,6.34,0,0,0,4.94-5.93c.33-3.31.21-6.58-2.9-8.8a4.74,4.74,0,0,0-1.15-.6c-3.7-1.32-7.51-1-11.39-.95Z"/><path d="M525.49,19H527c10.37,0,20.75-.14,31.12,0a28,28,0,0,1,16.39,5c5.42,3.91,8,9.48,8.67,15.94a38,38,0,0,1-.65,12.76c-2,8.88-7.53,14.41-16.34,16.4a67.06,67.06,0,0,1-10.56,1.13c-2.8.18-5.63,0-8.7,0v24H525.49Zm21.58,17.19V53c2.34,0,4.51.07,6.67,0,6.92-.28,9.65-3.6,8.66-10.45a6.43,6.43,0,0,0-5.08-5.81C554,35.89,550.61,36.07,547.08,36.17Z"/><path d="M640.76,18.84h20.91l26,41.43V18.88H709V94.1h-21l-25.8-41.29V94.09H640.76Z"/><path d="M307,18.89h21.3V46.65H353V18.92h21.59V94.11H353.12V64.58H328.37V94.15H307Z"/><path class="cls-1" d="M424.95,69.26H409.79l7.57-22.6C420,54.57,422.45,61.81,424.95,69.26Z"/><path d="M738.66,19V93.89H718V19Z"/><path d="M747.41,93.89V19h20.68l26.53,41.49V19h20.57V93.89H794.62l-26.53-42v42Z"/><path d="M862.67,51.93h40.86a104.72,104.72,0,0,1-.53,11,37.7,37.7,0,0,1-2.1,9.18,36.24,36.24,0,0,1-6,10.55A34.57,34.57,0,0,1,886,90.33,42.59,42.59,0,0,1,874.85,95,49.87,49.87,0,0,1,862,96.64a46.65,46.65,0,0,1-16.86-2.93,38.18,38.18,0,0,1-13.08-8.23,37.1,37.1,0,0,1-8.51-12.72,42.75,42.75,0,0,1-3-16.4,43.16,43.16,0,0,1,3-16.3A35.67,35.67,0,0,1,832,27.4a38.91,38.91,0,0,1,13.29-8.18,48.87,48.87,0,0,1,17.33-2.93,44.37,44.37,0,0,1,21.75,5.15q9.35,5.15,14.81,15.95l-19.54,7.77q-2.73-6.26-7.09-9a18.34,18.34,0,0,0-9.93-2.73,20.63,20.63,0,0,0-8.4,1.67,18.15,18.15,0,0,0-6.46,4.74,22.5,22.5,0,0,0-4.2,7.42A29.1,29.1,0,0,0,842.08,57a29.54,29.54,0,0,0,1.31,9,20,20,0,0,0,3.94,7.17,17.71,17.71,0,0,0,6.51,4.69,22.77,22.77,0,0,0,9,1.66,26,26,0,0,0,5.88-.66,15.83,15.83,0,0,0,5.09-2.12,12.26,12.26,0,0,0,3.73-3.78,14.78,14.78,0,0,0,2-5.65H862.67Z"/><path d="M962.79,28.28a23.07,23.07,0,0,1,2,9.39q0,15.83-19.09,22.47v7.6H926.29V47.16c.84.14,1.61.27,2.32.37a12.9,12.9,0,0,0,2,.16A17.86,17.86,0,0,0,936,46.9a14.69,14.69,0,0,0,4.38-2.16,10,10,0,0,0,2.9-3.33,8.86,8.86,0,0,0,1.06-4.27,7.93,7.93,0,0,0-2.11-5.49,7.36,7.36,0,0,0-5.7-2.32,6.6,6.6,0,0,0-5.22,2.22,8.41,8.41,0,0,0-1.95,5.8h-21a22.43,22.43,0,0,1,2.16-9.86,24,24,0,0,1,6-7.81,28,28,0,0,1,9.07-5.17,33.8,33.8,0,0,1,11.34-1.85,30.16,30.16,0,0,1,11.34,2.06,27.79,27.79,0,0,1,8.81,5.54A24.72,24.72,0,0,1,962.79,28.28Z"/><path d="M947.91,79.5a12.6,12.6,0,0,1,0,9.6,12,12,0,0,1-6.59,6.59,12.6,12.6,0,0,1-9.6,0,12.3,12.3,0,0,1-4-2.63,12.49,12.49,0,0,1-2.64-4,12.73,12.73,0,0,1,0-9.6,12.13,12.13,0,0,1,6.6-6.6,12.73,12.73,0,0,1,9.6,0,12.49,12.49,0,0,1,4,2.64A12.3,12.3,0,0,1,947.91,79.5Z"/></g></svg>