<svg xmlns="http://www.w3.org/2000/svg" viewBox="0 0 692.72 392.86"><defs><style>.cls-1{fill:#fff;}</style></defs><title>iih-rdam-bw</title><g id="Layer_1" data-name="Layer 1"><path d="M187.08,233.91H165.81V158.6h21.27Z"/><path class="cls-1" d="M165.81,233.91h21.27V158.6H165.81Zm99.57-94.17V253.13H146.9V139.74ZM247.25,177.1V158.64H194.6v18.6h15.58v56.68h21.61V177.1Z"/><path d="M231.79,233.92H210.18V177.24H194.6v-18.6h52.65V177.1H231.79Z"/><path class="cls-1" d="M124.23,139.74V253.13H0V139.74Zm-14.08,71.18q0-8.61-4.7-14t-14.82-8.57q-2.53-.79-5.12-1.5a29.13,29.13,0,0,1-4.64-1.66A10.87,10.87,0,0,1,77.55,183a4.53,4.53,0,0,1-1.27-3.31,5.54,5.54,0,0,1,2.53-4.71,11,11,0,0,1,6.54-1.8,18.86,18.86,0,0,1,6.54,1.25,26.11,26.11,0,0,1,6.76,3.86l8.22-15.34a56.65,56.65,0,0,0-12.34-4.56,52.84,52.84,0,0,0-12.34-1.55,34.09,34.09,0,0,0-11.45,1.81,24.71,24.71,0,0,0-8.65,5.06,22.47,22.47,0,0,0-5.49,7.81,25.66,25.66,0,0,0-1.95,10.18,20.53,20.53,0,0,0,1.85,9.27A18,18,0,0,0,61.35,197a25.22,25.22,0,0,0,6.86,3.86c2.57,1,5.19,1.85,7.86,2.66q3.38,1.09,5.75,2a17.39,17.39,0,0,1,3.85,1.95,6.37,6.37,0,0,1,.26,10.28q-2.47,2.21-7.54,2.2a23.07,23.07,0,0,1-9-1.9,36.27,36.27,0,0,1-9.18-5.82l-8.86,15.84a49.66,49.66,0,0,0,28,8.52,42.62,42.62,0,0,0,13-1.85,28.14,28.14,0,0,0,9.7-5.22,21.89,21.89,0,0,0,6-8.06A26.07,26.07,0,0,0,110.15,210.92ZM40.73,234.47V158.91H20.05v75.56Z"/><path d="M105.45,196.94q4.69,5.37,4.7,14a26.07,26.07,0,0,1-2.06,10.53,21.89,21.89,0,0,1-6,8.06,28.14,28.14,0,0,1-9.7,5.22,42.62,42.62,0,0,1-13,1.85,49.66,49.66,0,0,1-28-8.52l8.86-15.84A36.27,36.27,0,0,0,69.42,218a23.07,23.07,0,0,0,9,1.9q5.07,0,7.54-2.2a6.24,6.24,0,0,0-.26-10.28,17.39,17.39,0,0,0-3.85-1.95q-2.37-.9-5.75-2c-2.67-.81-5.29-1.69-7.86-2.66A25.22,25.22,0,0,1,61.35,197a18,18,0,0,1-4.85-6.06,20.53,20.53,0,0,1-1.85-9.27,25.66,25.66,0,0,1,1.95-10.18,22.47,22.47,0,0,1,5.49-7.81,24.71,24.71,0,0,1,8.65-5.06,34.09,34.09,0,0,1,11.45-1.81,52.84,52.84,0,0,1,12.34,1.55,56.65,56.65,0,0,1,12.34,4.56l-8.22,15.34a26.11,26.11,0,0,0-6.76-3.86,18.86,18.86,0,0,0-6.54-1.25,11,11,0,0,0-6.54,1.8,5.54,5.54,0,0,0-2.53,4.71A4.53,4.53,0,0,0,77.55,183a10.87,10.87,0,0,0,3.32,2.25,29.13,29.13,0,0,0,4.64,1.66q2.58.71,5.12,1.5Q100.76,191.58,105.45,196.94Z"/><rect x="20.05" y="158.91" width="20.68" height="75.56"/><path class="cls-1" d="M137.1,44.45c5.13,5.64,5.65,12.2,3,19.12A18.81,18.81,0,0,1,122.38,76a19.17,19.17,0,0,1-18.57-14.92A18.5,18.5,0,0,1,119.25,38,19.09,19.09,0,0,1,137.1,44.45Z"/><path d="M151.7,28c9.72,8.88,13.59,20.14,12,33.24-1.35,10.92-6,20.08-14.72,27-7.81,6.22-16.88,8.81-26.77,8.79a41.71,41.71,0,0,1-20.32-4.87C89.57,85.52,82.89,75,81.09,61.3A37,37,0,0,1,91.61,29.39a40.09,40.09,0,0,1,21-11.61C127.33,14.73,140.57,17.86,151.7,28ZM140.13,63.57c2.62-6.92,2.1-13.48-3-19.12A19.09,19.09,0,0,0,119.25,38a18.5,18.5,0,0,0-15.44,23.05A19.17,19.17,0,0,0,122.38,76,18.81,18.81,0,0,0,140.13,63.57Z"/><path class="cls-1" d="M674.64,0V113.38H0V0ZM656.72,79.81A12.63,12.63,0,1,0,644,92.2,12.57,12.57,0,0,0,656.72,79.81ZM623.58,94.57V19.27H599.14L584.72,55.11h-.45c-4.56-12-9.11-24-13.63-35.84H546.38V94.42c2.61.5,19.57.38,21.31-.19V65.78l.35,0q5.75,14.43,11.52,28.88h9.38c1.46-3.5,2.92-7,4.37-10.45s2.89-7,4.37-10.45,2.76-6.88,4.32-10.24l.49.14v31Zm-103.93,0c4.38.39,21.18.23,23-.25l-28.27-75H491.66q-14.24,37-28.4,73.87a7.35,7.35,0,0,0-.27,1c0,.06,0,.13.08.2a1.53,1.53,0,0,0,.13.21h22.44c1-2.53,2.05-5,3.08-7.55h28.06C517.78,89.68,518.73,92.17,519.65,94.56ZM439,93.38A37.64,37.64,0,0,0,431,19.22c-9.51-.27-19-.09-28.55-.1a11.27,11.27,0,0,0-1.21.12c-.52,2.64-.39,73.83.13,75.39.4,0,.83.07,1.26.07,8.94,0,17.88.11,26.81-.06A42.72,42.72,0,0,0,439,93.38ZM371.43,94.6h27L375.31,64.4c.82-.32,1.42-.55,2-.8a19.44,19.44,0,0,0,10.78-10.53,26.1,26.1,0,0,0,1.38-16.43,20.4,20.4,0,0,0-13-15.25,31.08,31.08,0,0,0-11.7-2.23q-14.59-.06-29.2,0c-.49,0-1,.09-1.43.13-.51,2.48-.4,73.79.09,75.31,3.76.39,19.49.23,21.16-.26V82.38c0-2,0-4.07,0-6.11s-.09-3.91.07-5.85l.44,0ZM326.22,37.85c-.05-6.37.11-12.49-.11-18.6h-43.9v75.3h43.88V76c-7.48-.11-14.84,0-22.23-.09V66.05h20.9c.52-2.62.41-17.1-.14-18.77H310.74l-6.85,0V37.85Zm-50.51,0V19.26H223V37.87h5.28c1.67,0,3.34-.05,5,0s3.44-.31,5.24.33V66.38c0,4.72,0,9.44,0,14.17s-.1,9.36.08,14h21.66V37.81Zm-58.37,0c.44-4.34.27-17-.21-18.49-3.26-.42-50.87-.25-52.39.18-.4,2.47-.3,16.59.18,18.37,5,.1,10,0,15.22.08v40.6c0,2.69,0,5.37,0,8.06s0,5.32.05,8h21.63V38C207.18,37.74,212.29,38,217.34,37.78Zm-53.68,23.5c1.63-13.1-2.24-24.36-12-33.24-11.13-10.18-24.37-13.31-39-10.26a40.09,40.09,0,0,0-21,11.61A37,37,0,0,0,81.09,61.3c1.8,13.7,8.48,24.22,20.76,30.89a41.71,41.71,0,0,0,20.32,4.87c9.89,0,19-2.57,26.77-8.79C157.62,81.36,162.31,72.2,163.66,61.28ZM73,52.92A26.17,26.17,0,0,0,75,40.56c-.64-9.79-6.22-17-15.59-19.85a32,32,0,0,0-8.55-1.45c-10.23-.2-20.47-.12-30.71-.14a8,8,0,0,0-1.24.2V94.57H40.32V70.44l.45-.09C46,78.46,51.14,86.57,56.25,94.57c5.2.44,25.1.24,26.8-.3L60.18,64.42l2.15-.9A19.42,19.42,0,0,0,73,52.92Z"/><path d="M644.14,67a12.62,12.62,0,1,1-12.68,12.56A12.57,12.57,0,0,1,644.14,67Z"/><path d="M623.58,19.27v75.3H602.49V63.62l-.49-.14c-1.56,3.36-2.87,6.83-4.32,10.24s-2.91,7-4.37,10.45-2.91,7-4.37,10.45h-9.38Q573.79,80.15,568,65.74l-.35,0V94.23c-1.74.57-18.7.69-21.31.19V19.26h24.26c4.52,11.88,9.07,23.86,13.63,35.84h.45l14.42-35.84Z"/><path d="M542.61,94.31c-1.78.48-18.58.64-23,.25-.92-2.39-1.87-4.88-2.87-7.51H488.72c-1,2.54-2,5-3.08,7.55H463.2a1.53,1.53,0,0,1-.13-.21c0-.07-.09-.14-.08-.2a7.35,7.35,0,0,1,.27-1q14.17-36.89,28.4-73.87h22.68Zm-47.33-24.7H510.5l-7.42-22.13h-.37C500.26,54.79,497.8,62.09,495.28,69.61Z"/><path class="cls-1" d="M510.5,69.61H495.28c2.52-7.52,5-14.82,7.43-22.13h.37Z"/><path d="M467.31,52.55A37.82,37.82,0,0,1,439,93.38a42.72,42.72,0,0,1-9.47,1.26c-8.93.17-17.87.06-26.81.06-.43,0-.86,0-1.26-.07-.52-1.56-.65-72.75-.13-75.39a11.27,11.27,0,0,1,1.21-.12c9.52,0,19-.17,28.55.1A38,38,0,0,1,467.31,52.55Zm-23.06,10.9a24.36,24.36,0,0,0,.8-8.62c-.64-9-6.18-15.14-15-16.64a22.9,22.9,0,0,0-7.35-.13V75.81a25.65,25.65,0,0,0,11.16-1.21A16,16,0,0,0,444.25,63.45Z"/><path class="cls-1" d="M445.05,54.83a24.36,24.36,0,0,1-.8,8.62A16,16,0,0,1,433.83,74.6a25.65,25.65,0,0,1-11.16,1.21V38.06a22.9,22.9,0,0,1,7.35.13C438.87,39.69,444.41,45.85,445.05,54.83Z"/><path d="M398.46,94.6h-27L355.94,70.37l-.44,0c-.16,1.94,0,3.9-.07,5.85s0,4.07,0,6.11V94.3c-1.67.49-17.4.65-21.16.26-.49-1.52-.6-72.83-.09-75.31.45,0,.94-.13,1.43-.13q14.61,0,29.2,0a31.08,31.08,0,0,1,11.7,2.23,20.4,20.4,0,0,1,13,15.25,26.1,26.1,0,0,1-1.38,16.43A19.44,19.44,0,0,1,377.33,63.6c-.6.25-1.2.48-2,.8ZM364.39,51.13c5.43-2.25,5.07-10.85,1.5-13.27-3.38-2.29-7.14-2.36-11.08-2.32V52.25A19,19,0,0,0,364.39,51.13Z"/><path class="cls-1" d="M365.89,37.86c3.57,2.42,3.93,11-1.5,13.27a19,19,0,0,1-9.58,1.12V35.54C358.75,35.5,362.51,35.57,365.89,37.86Z"/><path d="M326.11,19.25c.22,6.11.06,12.23.11,18.6H303.89v9.37l6.85,0h13.88c.55,1.67.66,16.15.14,18.77h-20.9v9.83c7.39.13,14.75,0,22.23.09V94.55H282.21V19.25Z"/><path d="M275.71,19.26V37.81H260.22V94.56H238.56c-.18-4.65-.05-9.33-.08-14s0-9.45,0-14.17V38.22c-1.8-.64-3.54-.27-5.24-.33s-3.34,0-5,0H223V19.26Z"/><path d="M217.13,19.29c.48,1.51.65,14.15.21,18.49-5.05.25-10.16,0-15.52.17V94.62H180.19c0-2.72,0-5.38-.05-8s0-5.37,0-8.06V37.92c-5.21-.12-10.25,0-15.22-.08-.48-1.78-.58-15.9-.18-18.37C166.26,19,213.87,18.87,217.13,19.29Z"/><path d="M75,40.56A26.17,26.17,0,0,1,73,52.92a19.42,19.42,0,0,1-10.7,10.6l-2.15.9L83.05,94.27c-1.7.54-21.6.74-26.8.3-5.11-8-10.29-16.11-15.48-24.22l-.45.09V94.57H18.86V19.32a8,8,0,0,1,1.24-.2c10.24,0,20.48-.06,30.71.14a32,32,0,0,1,8.55,1.45C68.73,23.53,74.31,30.77,75,40.56ZM46.6,52c5.14-1,7.3-4.25,6.65-9.47a6.49,6.49,0,0,0-3.84-5.42,19.81,19.81,0,0,0-9.62-1.49V52.66C42.18,52.42,44.43,52.39,46.6,52Z"/><path class="cls-1" d="M53.25,42.48c.65,5.22-1.51,8.43-6.65,9.47-2.17.44-4.42.47-6.81.71V35.57a19.81,19.81,0,0,1,9.62,1.49A6.49,6.49,0,0,1,53.25,42.48Z"/><rect class="cls-1" y="279.49" width="692.72" height="113.37"/><path d="M321.15,355h22.22v18.63H299.59V298.36h43.85v18.39H321.2v9.56h21v18.77H321.15Z"/><path d="M195,349.73v24H173.52V298.36h1.79c10.74,0,21,0,31.72.13a29.12,29.12,0,0,1,10.38,2.15,20.8,20.8,0,0,1,13.32,15.48,35.37,35.37,0,0,1-.07,16c-2.21,9.75-8.55,15.2-18.21,16.89a70,70,0,0,1-9.09.72C200.7,349.82,198,349.73,195,349.73Zm.11-17.17c3.63-.05,7.09.28,10.49-.65a6.34,6.34,0,0,0,4.94-5.93c.33-3.31.21-6.58-2.9-8.8a4.74,4.74,0,0,0-1.15-.6c-3.7-1.32-7.51-1-11.39-.95Z"/><path d="M237.44,298.46H239c10.37,0,20.75-.14,31.12,0a28,28,0,0,1,16.39,5c5.42,3.91,8,9.48,8.67,15.94a38,38,0,0,1-.65,12.76c-2,8.88-7.53,14.41-16.34,16.4a67.06,67.06,0,0,1-10.56,1.13c-2.8.18-5.63,0-8.7,0v24H237.44ZM259,315.65v16.84c2.34,0,4.51.07,6.67,0,6.92-.28,9.65-3.6,8.66-10.45a6.43,6.43,0,0,0-5.08-5.81C265.94,315.36,262.56,315.55,259,315.65Z"/><path d="M352.71,298.31h20.91l26,41.43V298.36H421v75.22H400l-25.8-41.29v41.28H352.71Z"/><path d="M18.9,298.36H40.2v27.76H64.9V298.39H86.49v75.18H65.07V344H40.32v29.57H18.9Z"/><path d="M140.73,298.46H118.12L89.2,373.66h22.92l3.07-7.57h27.94l2.93,7.61h23Zm-19,50.28,1-2.95,6.58-19.65,7.6,22.6Z"/><path d="M450.61,298.52v74.84H429.93V298.52Z"/><path d="M459.36,373.37V298.52H480L506.57,340V298.52h20.57v74.84H506.57l-26.53-42v42Z"/><path d="M574.61,331.4h40.86a104.72,104.72,0,0,1-.53,11,37.7,37.7,0,0,1-2.1,9.18,36.24,36.24,0,0,1-6,10.55,34.57,34.57,0,0,1-8.88,7.67,42.59,42.59,0,0,1-11.19,4.69A49.87,49.87,0,0,1,574,376.11a46.65,46.65,0,0,1-16.86-2.93A38.18,38.18,0,0,1,544,365a37.1,37.1,0,0,1-8.51-12.72,45.77,45.77,0,0,1-.05-32.7A35.67,35.67,0,0,1,544,306.88a38.91,38.91,0,0,1,13.29-8.18,48.87,48.87,0,0,1,17.33-2.93,44.37,44.37,0,0,1,21.75,5.15q9.35,5.15,14.81,15.95l-19.54,7.77q-2.73-6.26-7.09-9a18.34,18.34,0,0,0-9.93-2.73,20.63,20.63,0,0,0-8.4,1.67,18.15,18.15,0,0,0-6.46,4.74,22.5,22.5,0,0,0-4.2,7.42,29.1,29.1,0,0,0-1.52,9.69,29.54,29.54,0,0,0,1.31,9,20,20,0,0,0,3.94,7.17,17.71,17.71,0,0,0,6.51,4.69,22.77,22.77,0,0,0,9,1.66,26,26,0,0,0,5.88-.66,15.83,15.83,0,0,0,5.09-2.12,12.26,12.26,0,0,0,3.73-3.78,14.78,14.78,0,0,0,2-5.65H574.61Z"/><path d="M674.74,307.75a23.07,23.07,0,0,1,2,9.39q0,15.82-19.09,22.47v7.6H638.24V326.63c.84.14,1.61.27,2.32.37a12.9,12.9,0,0,0,2,.16,17.86,17.86,0,0,0,5.38-.79,14.69,14.69,0,0,0,4.38-2.16,10,10,0,0,0,2.9-3.33,8.86,8.86,0,0,0,1.06-4.27,7.93,7.93,0,0,0-2.11-5.49,7.36,7.36,0,0,0-5.7-2.32,6.6,6.6,0,0,0-5.22,2.22,8.41,8.41,0,0,0-2,5.8h-21a22.43,22.43,0,0,1,2.16-9.86,24,24,0,0,1,6-7.81,28,28,0,0,1,9.07-5.17,33.8,33.8,0,0,1,11.34-1.85,30.16,30.16,0,0,1,11.34,2.06,27.79,27.79,0,0,1,8.81,5.54A24.72,24.72,0,0,1,674.74,307.75Z"/><path d="M659.86,359a12.6,12.6,0,0,1,0,9.6,12,12,0,0,1-6.59,6.59,12.6,12.6,0,0,1-9.6,0,12.3,12.3,0,0,1-4-2.63,12.49,12.49,0,0,1-2.64-4,12.73,12.73,0,0,1,0-9.6,12.13,12.13,0,0,1,6.6-6.6,12.73,12.73,0,0,1,9.6,0,12.49,12.49,0,0,1,4,2.64A12.3,12.3,0,0,1,659.86,359Z"/></g></svg>