<?xml version="1.0" encoding="utf-8"?>
<!-- Generator: Adobe Illustrator 21.1.0, SVG Export Plug-In . SVG Version: 6.00 Build 0)  -->
<svg version="1.1" id="Layer_1" xmlns="http://www.w3.org/2000/svg" xmlns:xlink="http://www.w3.org/1999/xlink" x="0px" y="0px"
	 viewBox="0 0 951.2 113.2" style="enable-background:new 0 0 951.2 113.2;" xml:space="preserve">
<style type="text/css">
	.st0{fill:#FFFFFF;}
</style>
<title>iih</title>
<g id="Layer_1_1_">
	<rect x="477.1" y="0" class="st0" width="474.1" height="113.1"/>
	<rect x="338.4" y="0.1" class="st0" width="119.2" height="113.2"/>
	<rect y="0.3" class="st0" width="319" height="112.7"/>
	<path d="M932.3,83.5c0,7-5.6,12.7-12.6,12.7s-12.7-5.6-12.7-12.6s5.6-12.7,12.6-12.7S932.3,76.5,932.3,83.5z"/>
	<path d="M898.1,18.9v75.1c-1.7,0.5-15,0.6-20.9,0.2l-25.4-40.7l-0.4,0.1v40.2c-1.7,0.6-19,0.7-21.5,0.2V18.8h20.9l12.8,20.4
		l12.8,20.3l0.5-0.2V18.9H898.1z"/>
	<path d="M820.6,18.9v18.4c-2.4,0.3-4.9,0.1-7.3,0.1s-4.9,0-7.4,0h-7.4c-0.6,1.6-0.2,3.1-0.3,4.6s0,3,0,4.8c7.1,0.3,14.1,0,21.2,0.2
		v18.7c-7,0.1-14,0-21.1,0.1v9.8h22c0.6,1.7,0.7,16,0.2,18.6h-43.8V18.9H820.6z"/>
	<path d="M770.1,37.1c1.1,4.9,1.1,10,0,14.9c-2.1,9.9-8.3,15.7-18.4,17.5c-4.5,0.8-9,0.7-13.5,0.7h-4v24H713
		c-0.5-1.6-0.6-72.7-0.1-75.2c0.5,0,0.9-0.1,1.4-0.1c10.4,0,20.7,0,31.1,0.1c3.6,0,7.1,0.7,10.4,1.9
		C763.3,23.2,768.7,29.5,770.1,37.1z M749.8,46.4c0.1-1.2,0.1-2.5,0-3.7c-0.1-3-2.3-5.6-5.3-6.1c-3.2-0.6-6.6-0.8-9.9-0.5
		c-0.5,2.1-0.5,15,0,16.9c3.3,0,6.6,0.2,9.9-0.5C747.5,52,749.7,49.4,749.8,46.4z"/>
	<path d="M706.2,36.6c1.2,5.5,1.2,11.2-0.2,16.6c-2.1,8.5-7.5,13.6-15.9,15.8c-3.5,0.8-7,1.2-10.6,1.2c-2.9,0-5.8,0-9,0V94
		c-1.8,0.5-19.1,0.6-21.5,0.1V19c0.4-0.1,0.9-0.2,1.3-0.2c10.7,0,21.5,0,32.2,0.1c3.6,0.1,7.1,0.8,10.4,2.2
		C699.7,23.5,704.7,29.4,706.2,36.6z M685.8,47.3c0.4-2.1,0.4-4.2-0.2-6.2c-0.5-1.9-1.9-3.4-3.7-4c-3.7-1.3-7.5-1-11.4-1V53
		c3.6,0,7.1,0.3,10.5-0.7C683.5,51.8,685.4,49.8,685.8,47.3z"/>
	<path d="M646.2,94.2h-23c-1-2.5-1.9-5-2.9-7.6h-28c-1,2.5-2,5-3.1,7.6h-22.9C576,69,585.6,44,595.2,19h22.6L646.2,94.2z
		 M599.3,69.3h14.5c-0.5-3.2-6.6-20.8-7.5-21.9C603.6,54,599.2,67.6,599.3,69.3z"/>
	<path d="M563.4,19c0.4,1.6,0.5,72.4,0.1,75c-1.6,0.4-18.8,0.5-21.4,0.1V64.8c-1.7-0.5-21.5-0.7-24.8-0.2c0,3.2,0,6.4,0,9.7
		s0,6.7,0,10v9.9H496V18.9h21.3v27.5c1.8,0.5,21.6,0.7,24.7,0.2V19.1C543.8,18.6,561,18.5,563.4,19z"/>
	<path d="M438.7,19.1v18.4h-15.4c-0.3,4.9-0.1,9.6-0.1,14.3s0,9.4,0,14.2v28.4h-21.6c0-2.7,0-5.3,0-7.9c0-2.7,0-5.4,0-8.1V37.6H386
		V19.2C387.5,18.7,435.9,18.6,438.7,19.1z"/>
	<path d="M378.3,18.9c0.5,1.6,0.6,72.2,0.1,75.3h-21.2V18.9H378.3z"/>
	<path d="M299.8,75.6c0.6,1.6,0.7,15.2,0.3,18.5c-1.6,0.4-39.6,0.6-43.6,0.2c-0.5-1.5-0.6-72.8-0.1-75.4h43.7v18.5
		c-0.7,0-1.5,0.1-2.2,0.1h-17.6c-0.8,0-1.5,0.1-2.4,0.1V47h21.1v18.7h-21.1v9.9H299.8z"/>
	<path d="M255,94.3h-28.1l-22.1-28.5l-0.5,0.2v28.3h-21.6V19.1c1.6-0.5,18.4-0.6,21.4-0.1c0.2,2.2,0.2,4.4,0.1,6.6
		c0,2.2,0,4.5,0,6.7v13.4l0.5,0.1l20.6-27h26.4c0.1,0.1,0.1,0.2,0.1,0.3c0,0.1,0,0.1,0,0.2c-0.1,0.2-0.2,0.4-0.3,0.5
		c-9.6,11.5-19.3,23-28.9,34.5c-0.1,0.2-0.2,0.3-0.2,0.5L255,94.3z"/>
	<path d="M179.8,94.3h-23c-1-2.5-2-5.1-3-7.6h-27.8l-3.1,7.6h-22.5c0.1-1.7,26.2-70,28.6-75.2h22.5L179.8,94.3z M132.8,69.4h14.8
		c-2.5-7.5-4.9-14.7-7.4-22.1C139,49.5,132.9,67.8,132.8,69.4z"/>
	<path d="M96.2,18.9v75.4H75c0-5.2,0-10.4,0-15.6V63.3l-0.4-0.1c-4.4,10.4-8.7,20.8-13,31.1h-9.4c-3.8-9.5-7.6-19.1-11.4-28.6h-0.6
		v28.6H19V18.9h24.2L50,36.8c2.3,6,4.6,12,7.1,18.6l14.7-36.5L96.2,18.9z"/>
</g>
</svg>
