<svg xmlns="http://www.w3.org/2000/svg" viewBox="0 0 2833.38 848.48"><defs><style>.cls-1{fill:#666;}</style></defs><title>rq</title><g id="Layer_1" data-name="Layer 1"><path class="cls-1" d="M0,580.62c7.16-31,17.43-60.44,39.93-84.4,51.54-54.9,141.32-66.37,205.78-25.89,5,3.15,12.6,8.45,20.4,13.14,0-13,.09-17.85.09-27.71h66.38c0,6.61,0,13.18,0,19.75q0,176.75,0,353.51c0,6.78.49,13.56.74,20.33h-68V727.46c-9.63,6-14.7,9.09-19.77,12.25-65.07,40.47-154.09,28.72-206.45-27-21.6-23-31-51.64-39.1-81.06ZM167.79,703.86c58.12-.17,100.12-42,99.77-99.28-.35-57.51-42.37-98.87-100.39-98.8-58.25.07-99.25,41.15-99.16,99.38S109.15,704,167.79,703.86Z"/><path class="cls-1" d="M0,94.2H197.48v59c-33.88,0-67.07,0-100.25,0-29.61,0-31.42,1.9-31.41,31.9q0,94.25,0,188.51c0,6.07,0,12.14,0,19.89H0Z"/><path class="cls-1" d="M2833.38,393.27h-64.86c0-6.83,0-13.35,0-19.87,0-65.19-.41-130.39.3-195.57.19-17.36-5.76-24.56-23.36-24.82-43.42-.65-43.43-1.12-43.44,41.93q0,89.28,0,178.57c0,6.1,0,12.19,0,19.34h-66.17c0-6.14,0-12.14,0-18.13,0-65.76-.46-131.52.33-197.27.21-17.71-6.17-24.25-23.54-24.44-43.33-.48-43.3-.94-43.29,42.34q0,89.28,0,178.57c0,6.07,0,12.14,0,19.06h-65.14V94.85h329.15Z"/><path class="cls-1" d="M1988.26,118.58V0h66.07V392.63h-63.77c.12-11.21,0,0,.12-24.46-91.8,49.05-178.37,51.73-242.86-38.73-38.9-54.57-33.16-139.95,11.95-188.62C1826.61,68.69,1904.48,70.28,1988.26,118.58Zm2.42,125.22c0-58.66-40.42-99.26-99-99.31-58.08-.05-99.91,41.44-99.81,99,.1,58.24,41.09,99.06,99.48,99C1950.24,342.52,1990.64,302.36,1990.68,243.8Z"/><path class="cls-1" d="M2435.38,393.22h-63.11c0-13.31.14-15.21.14-29.34-50.49,37.33-111.72,47.63-169.72,26.77-32-11.49-56.83-32.2-74.68-61.21-35.7-58-29.12-142.62,15-192,53.28-59.7,149.45-65.36,229.36-14.86,0-20.24,0-13.25,0-27.78h63ZM2173.58,244.07c0,57.63,40.53,98.36,97.94,98.46,59.59.1,102.22-41.65,101.39-99.31-.83-57.93-42.49-98.85-100.54-98.73C2214.14,144.61,2173.57,185.49,2173.58,244.07Z"/><path class="cls-1" d="M1178.57,393V95h262.87v58.26h-155c-42.92,0-42.5,0-41.75,42.75.24,13.78,6.36,17.5,18.8,17.43,52.68-.3,105.37-.14,158.06-.14h19.78v61.2h-60.66c-39.09,0-78.19.42-117.27-.24-14.18-.24-19,5.07-18.67,19,1,42.79-5.47,39.9,38.6,39.9h158.4V393Z"/><path class="cls-1" d="M1325.55,753.75H1062V695.1c10.78,0,11.85,0,17.81,0,51.55-.05,97.89-.41,149.44.22,26,0,30.48-5.44,30.48-28,0-26.65-2.82-32.36-29.48-32.36H1062.36V456h263.12v59.26h-18.13c-52.12,0-98.59-.28-156.36-.28-19.4,0-23.93,5.54-23.93,23.47,0,5.39,0,6.79,0,10.19.1,24.26.66,26,26.14,26l154.66,0h17.65Z"/><path class="cls-1" d="M2700.6,456v59.21H2682c-52.11,0-104.23.44-156.33-.25-16.63-.22-23.17,2.11-23.17,27.95,0,28.17,5.44,31.7,25.13,31.7h172.45v178.6H2436.62V696c5.83-.3,11.77-.85,17.71-.86,52.11-.07,104.23-.49,156.33.21,18.32.25,24.44-3.27,24.44-25,0-6,0-8.13,0-13.58,0-19.88-5.45-22.18-21.75-22-58.33.63-116.66.24-176.39.24V456Z"/><path class="cls-1" d="M731.61,455.66h261.9v59.56H940.19c-40.8,0-85.8-.16-126.6-.16-14.17,0-17.39,2.69-17.39,16.69,0,1-.12,24.16-.12,29.33,0,10,3.5,13.53,17.33,13.53H993.49V635H879.4c-21.53,0-43.12-.07-64.65-.07-13.46,0-18.17,3.61-18.17,15.79,0,3.45-.29,16.49-.29,28.61,0,11.83,4.44,15.72,16.29,15.72H993.24v58H731.61Z"/><path class="cls-1" d="M2139.57,601.15c.06,92.31-69,158-167,158.88-97.09.91-169.34-67.25-168.82-159.29.52-92.33,70.23-158.41,167.52-158.79C2069.47,441.57,2139.51,507.81,2139.57,601.15Zm-168.13,98.54c58.72.17,100-40.39,100.13-98.33s-41.16-99.34-99.27-99.69c-57.85-.35-100.06,41.24-100.27,98.8C1871.82,658.33,1913.1,699.53,1971.45,699.69Z"/><path class="cls-1" d="M381.44,401.81c-64.53-1.07-118.51-23.74-148.81-83.19-28.81-56.52-25.77-114.4,10.53-167.53,51.16-74.88,176-88.94,250.93-29.59,67.5,53.44,76.13,162.44,17.12,227.89C476.8,387.55,432,402.13,381.44,401.81Zm.6-59.22c58.35.12,100.25-40.89,100.62-98.5.37-57.17-41.74-99.2-99.8-99.61s-100,41-100.16,98.76C282.52,301.28,323.69,342.46,382,342.59Z"/><path class="cls-1" d="M597.49,455.72h65V753.38H398.85V456.1h66.38c0,5.43,0,11.36,0,17.29,0,66.32.41,132.64-.27,198.95-.17,17.08,6.22,23.36,22.89,23q43.34-1,86.71,0c16.71.38,23.26-6.23,23.13-23.09-.53-65.18-.22-130.37-.21-195.55C597.49,469.95,597.49,463.27,597.49,455.72Z"/><path class="cls-1" d="M2257.87,754.4h-66V456.1h197.22V753.7h-65.79c0-16,0-31.7,0-47.44,0-56.12-.28-112.24.24-168.35.14-15.54-4.44-22.65-21.4-22.21-50.91,1.33-43.94-5.94-44.19,44.52C2257.64,624.19,2257.87,688.16,2257.87,754.4Z"/><path class="cls-1" d="M1374.53,515.23V455.89h264.07v59.32c-24.78,0-49,.93-73.15-.3-19-1-26,5.19-25.7,25,1.06,64.59.4,129.21.39,193.82,0,6.12,0,12.24,0,19.51H1472.9c0-7.82,0-15.56,0-23.29,0-64.61-.33-129.22.31-193.83.15-15.47-5.24-21.53-20.65-21.12C1427.17,515.71,1401.77,515.23,1374.53,515.23Z"/><path class="cls-1" d="M1029.89,393.24H962.66c0-17.41,0-34.2,0-51q0-81.57,0-163.15c0-23.43-2.25-25.72-26.48-25.86-23.2-.13-46.39,0-71.08,0V94.87h263.33v58.36c-16.07,0-31.7,0-47.32,0-62.22.12-50.4-3.91-51.09,51.78-.7,56.07-.15,112.16-.15,168.24C1029.89,379.36,1029.89,385.47,1029.89,393.24Z"/><path class="cls-1" d="M731.68,393H665.52c0-8.06,0-15.23,0-22.4,0-64.54-.41-129.08.27-193.62.19-17.93-7.08-24.4-24.17-23.89-20.93.63-41.9-.26-62.83.32-10.4.29,0,0-13.56,0,.22-43,.22-43,.22-58.53H830.2v58.33c-25.08,0-49.26.57-73.39-.18-18.72-.58-25.77,6.47-25.51,25.92C732.25,249.66,731.68,320.39,731.68,393Z"/><path class="cls-1" d="M1575.29,393h-65.1V94.85h196.56v58.38c-26.75,0-53.64.09-80.52,0-60-.25-50.5-2.17-50.84,51C1575,266.5,1575.29,328.77,1575.29,393Z"/><path class="cls-1" d="M1688,455.38h63.57v298H1688Z"/></g></svg>