<svg id="Layer_1" data-name="Layer 1" xmlns="http://www.w3.org/2000/svg" viewBox="0 0 56.69 56.69"><defs><style>.cls-1{fill:#fff;}</style></defs><title>social</title><circle class="cls-1" cx="28.21" cy="28.98" r="4.4"/><path class="cls-1" d="M33.71,18.18h-11a5.46,5.46,0,0,0-3.9,1.4,5.46,5.46,0,0,0-1.4,3.9v11a5.51,5.51,0,0,0,1.5,4,5.64,5.64,0,0,0,3.9,1.4h10.9a5.46,5.46,0,0,0,3.9-1.4,5.12,5.12,0,0,0,1.5-3.9v-11a5.64,5.64,0,0,0-1.4-3.9A5.35,5.35,0,0,0,33.71,18.18Zm-5.5,17.6a6.8,6.8,0,1,1,0-13.6,6.8,6.8,0,1,1,0,13.6Zm7.1-12.3a1.6,1.6,0,1,1,1.6-1.6A1.58,1.58,0,0,1,35.31,23.48Z"/><path class="cls-1" d="M28.41,4.18A24.6,24.6,0,1,0,53,28.78,24.58,24.58,0,0,0,28.41,4.18Zm13.1,30.4a7.93,7.93,0,0,1-2.2,5.7,7.78,7.78,0,0,1-5.6,2.1H22.81a7.78,7.78,0,0,1-5.6-2.1,7.53,7.53,0,0,1-2.2-5.7v-11a7.4,7.4,0,0,1,7.8-7.8h11a7.37,7.37,0,0,1,7.7,7.8Z"/></svg>