<svg id="Layer_1" data-name="Layer 1" xmlns="http://www.w3.org/2000/svg" viewBox="0 0 56.69 56.69"><defs><style>.cls-1{fill:#fff;}</style></defs><title>social</title><path class="cls-1" d="M3.84,28.61A24.6,24.6,0,1,1,28.38,53.29,24.58,24.58,0,0,1,3.84,28.61Zm24.57,10.2c3.62,0,7.24,0,10.85.05a2.24,2.24,0,0,0,2.25-2.22c0-5.24,0-10.47,0-15.71a2.06,2.06,0,0,0-2.22-2.22l-21.71-.06a2.06,2.06,0,0,0-2.23,2.21c0,5.24,0,10.47-.07,15.71a2.24,2.24,0,0,0,2.24,2.23C21.17,38.75,24.79,38.8,28.41,38.81Z"/><path class="cls-1" d="M17.82,20.23l21.28.06-.36.41q-3.61,3.85-7.22,7.7a4,4,0,0,1-6.15,0q-3.61-3.88-7.21-7.78Z"/><path class="cls-1" d="M38.95,37.31,17.8,37.25,23.85,29a5.73,5.73,0,0,0,9.26-.1Z"/><path class="cls-1" d="M16.92,35.85,17,21.6l5.84,6.3Z"/><path class="cls-1" d="M34.19,27.81l5.75-6.14,0,14.32Z"/></svg>