<svg id="Layer_1" data-name="Layer 1" xmlns="http://www.w3.org/2000/svg" viewBox="0 0 56.69 56.69"><defs><style>.cls-1{fill:#fff;}</style></defs><title>social</title><path class="cls-1" d="M28.35,5.16A24.62,24.62,0,1,0,53,29.78,24.63,24.63,0,0,0,28.35,5.16Zm12.4,19.66c0,.27,0,.53,0,.8,0,8.2-6.24,17.66-17.66,17.66a17.57,17.57,0,0,1-9.51-2.79,12.69,12.69,0,0,0,1.48.09,12.45,12.45,0,0,0,7.71-2.66A6.21,6.21,0,0,1,17,33.61a6.06,6.06,0,0,0,1.17.11,6.17,6.17,0,0,0,1.64-.22,6.21,6.21,0,0,1-5-6.08s0-.05,0-.08a6.18,6.18,0,0,0,2.81.78,6.21,6.21,0,0,1-1.92-8.29A17.62,17.62,0,0,0,28.5,26.31a6.21,6.21,0,0,1,10.57-5.66A12.4,12.4,0,0,0,43,19.15a6.22,6.22,0,0,1-2.73,3.43,12.41,12.41,0,0,0,3.56-1A12.54,12.54,0,0,1,40.75,24.82Z"/></svg>