<svg xmlns="http://www.w3.org/2000/svg" viewBox="0 0 124.23 113.39"><defs><style>.cls-1{fill:#fff;}</style></defs><title>logo</title><g id="Layer_1" data-name="Layer 1"><rect width="124.23" height="113.39"/><path class="cls-1" d="M40.73,19.16V94.73H20.05V19.16Z"/><path class="cls-1" d="M98.65,38.51a25.9,25.9,0,0,0-6.75-3.86,18.76,18.76,0,0,0-6.54-1.25,11,11,0,0,0-6.54,1.8,5.54,5.54,0,0,0-2.53,4.71,4.55,4.55,0,0,0,1.27,3.31,11,11,0,0,0,3.32,2.26,29.17,29.17,0,0,0,4.64,1.65q2.58.7,5.12,1.5,10.13,3.21,14.82,8.57t4.7,14a26,26,0,0,1-2.06,10.52,22,22,0,0,1-6,8.07A28.15,28.15,0,0,1,92.37,95a42.4,42.4,0,0,1-13,1.85,49.65,49.65,0,0,1-28-8.52l8.86-15.84a36.1,36.1,0,0,0,9.18,5.81,23,23,0,0,0,9,1.9q5.06,0,7.54-2.2a6.58,6.58,0,0,0,2.48-5,5.86,5.86,0,0,0-2.74-5.26,17.21,17.21,0,0,0-3.85-2q-2.37-.9-5.75-2-4-1.2-7.86-2.66a25,25,0,0,1-6.86-3.86,18,18,0,0,1-4.85-6.06,20.51,20.51,0,0,1-1.85-9.27,25.58,25.58,0,0,1,2-10.17,22.55,22.55,0,0,1,5.49-7.82,24.7,24.7,0,0,1,8.65-5.06,34.26,34.26,0,0,1,11.45-1.8,52.64,52.64,0,0,1,12.34,1.55,56.29,56.29,0,0,1,12.34,4.56Z"/></g></svg>