<svg xmlns="http://www.w3.org/2000/svg" viewBox="0 0 692.72 113.37"><defs><style>.cls-1{fill:#fff;}</style></defs><title>logo</title><g id="Layer_1" data-name="Layer 1"><rect width="692.72" height="113.37"/><path class="cls-1" d="M169.08,94.21h-23l-2.93-7.61H115.2l-3.07,7.57H89.2L118.12,19h22.61Zm-32.18-25-7.6-22.6-7.57,22.6Z"/><path class="cls-1" d="M321.15,75.49h22.22V94.12H299.59V18.87h43.85V37.25H321.2v9.56h21V65.58H321.15Z"/><path class="cls-1" d="M195,70.24v24H173.52V18.87h1.79c10.74,0,21,0,31.72.13a29.12,29.12,0,0,1,10.38,2.15,20.8,20.8,0,0,1,13.32,15.48,35.37,35.37,0,0,1-.07,16c-2.21,9.75-8.55,15.2-18.21,16.89a70,70,0,0,1-9.09.72C200.7,70.33,198,70.24,195,70.24Zm.11-17.17c3.63-.05,7.09.28,10.49-.65a6.34,6.34,0,0,0,4.94-5.93c.33-3.31.21-6.58-2.9-8.8a4.74,4.74,0,0,0-1.15-.6c-3.7-1.32-7.51-1-11.39-.95Z"/><path class="cls-1" d="M237.44,19H239c10.37,0,20.75-.14,31.12,0a28,28,0,0,1,16.39,5c5.42,3.91,8,9.48,8.67,15.94a38,38,0,0,1-.65,12.76c-2,8.88-7.53,14.41-16.34,16.4a67.06,67.06,0,0,1-10.56,1.13c-2.8.18-5.63,0-8.7,0v24H237.44ZM259,36.16V53c2.34,0,4.51.07,6.67,0,6.92-.28,9.65-3.6,8.66-10.45a6.43,6.43,0,0,0-5.08-5.81C265.94,35.87,262.56,36.06,259,36.16Z"/><path class="cls-1" d="M352.71,18.82h20.91l26,41.43V18.87H421V94.08H400L374.23,52.8V94.07H352.71Z"/><path class="cls-1" d="M18.9,18.87H40.2V46.63H64.9V18.9H86.49V94.09H65.07V64.56H40.32V94.13H18.9Z"/><path class="cls-1" d="M450.61,19V93.88H429.93V19Z"/><path class="cls-1" d="M459.36,93.88V19H480l26.53,41.49V19h20.57V93.88H506.57L480,51.89v42Z"/><path class="cls-1" d="M574.61,51.91h40.86a104.72,104.72,0,0,1-.53,11,37.7,37.7,0,0,1-2.1,9.18,36.24,36.24,0,0,1-6,10.55A34.57,34.57,0,0,1,598,90.32,42.59,42.59,0,0,1,586.8,95,49.87,49.87,0,0,1,574,96.62a46.65,46.65,0,0,1-16.86-2.93A38.18,38.18,0,0,1,544,85.47a37.1,37.1,0,0,1-8.51-12.72,42.75,42.75,0,0,1-3-16.4,43.16,43.16,0,0,1,3-16.3A35.67,35.67,0,0,1,544,27.38a38.91,38.91,0,0,1,13.29-8.18,48.87,48.87,0,0,1,17.33-2.93,44.37,44.37,0,0,1,21.75,5.15q9.35,5.15,14.81,15.95l-19.54,7.77q-2.73-6.26-7.09-9a18.34,18.34,0,0,0-9.93-2.73,20.63,20.63,0,0,0-8.4,1.67,18.15,18.15,0,0,0-6.46,4.74,22.5,22.5,0,0,0-4.2,7.42A29.1,29.1,0,0,0,554,57a29.54,29.54,0,0,0,1.31,9,20,20,0,0,0,3.94,7.17,17.71,17.71,0,0,0,6.51,4.69,22.77,22.77,0,0,0,9,1.66,26,26,0,0,0,5.88-.66,15.83,15.83,0,0,0,5.09-2.12,12.26,12.26,0,0,0,3.73-3.78,14.78,14.78,0,0,0,2-5.65H574.61Z"/><path class="cls-1" d="M674.74,28.26a23.07,23.07,0,0,1,2,9.39q0,15.82-19.09,22.47v7.6H638.24V47.14c.84.14,1.61.27,2.32.37a12.9,12.9,0,0,0,2,.16,17.86,17.86,0,0,0,5.38-.79,14.69,14.69,0,0,0,4.38-2.16,10,10,0,0,0,2.9-3.33,8.86,8.86,0,0,0,1.06-4.27,7.93,7.93,0,0,0-2.11-5.49,7.36,7.36,0,0,0-5.7-2.32,6.6,6.6,0,0,0-5.22,2.22,8.41,8.41,0,0,0-2,5.8h-21a22.43,22.43,0,0,1,2.16-9.86,24,24,0,0,1,6-7.81,28,28,0,0,1,9.07-5.17,33.8,33.8,0,0,1,11.34-1.85,30.16,30.16,0,0,1,11.34,2.06A27.79,27.79,0,0,1,669,20.24,24.72,24.72,0,0,1,674.74,28.26Z"/><path class="cls-1" d="M659.86,79.48a12.6,12.6,0,0,1,0,9.6,12,12,0,0,1-6.59,6.59,12.6,12.6,0,0,1-9.6,0,12.3,12.3,0,0,1-4-2.63,12.49,12.49,0,0,1-2.64-4,12.73,12.73,0,0,1,0-9.6,12.13,12.13,0,0,1,6.6-6.6,12.73,12.73,0,0,1,9.6,0,12.49,12.49,0,0,1,4,2.64A12.3,12.3,0,0,1,659.86,79.48Z"/></g></svg>