<?xml version="1.0" encoding="utf-8"?>
<!-- Generator: Adobe Illustrator 21.1.0, SVG Export Plug-In . SVG Version: 6.00 Build 0)  -->
<svg version="1.1" id="Layer_1" xmlns="http://www.w3.org/2000/svg" xmlns:xlink="http://www.w3.org/1999/xlink" x="0px" y="0px"
	 viewBox="0 0 981.1 113.4" style="enable-background:new 0 0 981.1 113.4;" xml:space="preserve">
<style type="text/css">
	.st0{fill:#FFFFFF;}
</style>
<title>iih</title>
<g id="Layer_1_1_">
	<path d="M265.4-0.2v113.4H146.9V-0.2 M210.2,37.4v56.9h21.6v-57h15.5V18.7h-52.6v18.7H210.2z M165.8,94.3h21.3V18.7h-21.3V94.3z"/>
	<path class="st0" d="M210.2,37.3h-15.6V18.7h52.7v18.4h-15.5V94h-21.6V37.3z"/>
	<path class="st0" d="M165.8,93.9V18.6h21.3v75.3H165.8z"/>
	<polyline points="124.2,-0.2 124.2,113.2 0,113.2 0,-0.2 	"/>
	<path class="st0" d="M40.7,18.9v75.6H20V18.9H40.7z"/>
	<path class="st0" d="M98.7,38.3c-2-1.6-4.3-2.9-6.8-3.9c-2.1-0.8-4.3-1.2-6.5-1.2c-2.3-0.1-4.6,0.5-6.6,1.8c-1.6,1-2.6,2.8-2.5,4.7
		c0,1.2,0.4,2.4,1.3,3.3c1,1,2.1,1.7,3.3,2.3c1.5,0.7,3,1.2,4.6,1.7c1.7,0.5,3.4,1,5.1,1.5c6.8,2.1,11.7,5,14.8,8.6
		c3.1,3.6,4.7,8.2,4.7,14c0.1,3.6-0.7,7.2-2.1,10.5c-1.4,3.1-3.4,5.9-6,8.1c-2.9,2.4-6.2,4.1-9.7,5.2c-4.2,1.3-8.6,1.9-13,1.8
		c-10,0-19.7-2.9-28-8.5l8.9-15.8c2.7,2.4,5.8,4.3,9.2,5.8c2.8,1.2,5.9,1.9,9,1.9c3.4,0,5.9-0.7,7.5-2.2c1.5-1.2,2.4-3,2.5-5
		c0.1-2.1-0.9-4.1-2.7-5.3c-1.2-0.8-2.5-1.5-3.8-2c-1.6-0.6-3.5-1.3-5.8-2c-2.7-0.8-5.3-1.7-7.9-2.7c-2.5-0.9-4.8-2.2-6.9-3.9
		c-2-1.6-3.7-3.7-4.8-6c-1.3-2.9-2-6.1-1.8-9.3c0-3.5,0.6-7,2-10.2c1.3-3,3.1-5.6,5.5-7.8c2.5-2.3,5.5-4,8.7-5.1
		c3.7-1.2,7.6-1.9,11.4-1.8c4.2,0,8.3,0.5,12.3,1.5c4.3,1,8.4,2.6,12.3,4.6L98.7,38.3z"/>
	<path d="M980.8,0v113.4H288V0 M640.8,18.9v75.5h21.5V53l25.8,41.4h21V18.9h-21.5v41.5l-26-41.5L640.8,18.9z M307,18.9v75.5h21.4
		V64.8h24.8v29.6h21.4V19H353v27.8h-24.7V18.9H307z M457.1,94.5L428.8,19h-22.6l-28.9,75.5h22.9l3.1-7.6h27.9l2.9,7.6L457.1,94.5z
		 M609.2,75.7v-9.9h21.1V47h-21v-9.6h22.2V18.9h-43.9v75.5h43.8V75.7H609.2z"/>
	<path class="st0" d="M457.1,94.2h-23l-2.9-7.6h-28l-3.1,7.6h-22.9L406.2,19h22.6L457.1,94.2z M425,69.3l-7.6-22.6l-7.6,22.6H425z"
		/>
	<path class="st0" d="M609.2,75.5h22.2v18.6h-43.8V18.9h43.9v18.4h-22.2v9.6h21v18.8h-21V75.5z"/>
	<path class="st0" d="M483.1,70.2v24h-21.5V18.9h1.8c10.7,0,21,0,31.7,0.1c3.6,0.1,7.1,0.8,10.4,2.1c6.8,2.5,11.9,8.3,13.3,15.5
		c1.2,5.3,1.2,10.7-0.1,16c-2.2,9.8-8.5,15.2-18.2,16.9c-3,0.4-6,0.7-9.1,0.7C488.8,70.3,486.1,70.2,483.1,70.2z M483.2,53.1
		c3.6,0,7.1,0.3,10.5-0.7c2.8-0.6,4.8-3.1,4.9-5.9c0.3-3.3,0.2-6.6-2.9-8.8c-0.4-0.3-0.7-0.5-1.1-0.6c-3.7-1.3-7.5-1-11.4-1
		L483.2,53.1z"/>
	<path class="st0" d="M525.5,19h1.5c10.4,0,20.8-0.1,31.1,0c5.9-0.1,11.6,1.7,16.4,5c5.4,3.9,8,9.5,8.7,15.9
		c0.5,4.3,0.3,8.6-0.7,12.8c-2,8.9-7.5,14.4-16.3,16.4c-3.5,0.7-7,1-10.6,1.1c-2.8,0.2-5.6,0-8.7,0v24h-21.4V19z M547.1,36.2V53
		c2.3,0,4.5,0.1,6.7,0c6.9-0.3,9.7-3.6,8.7-10.5c-0.2-2.9-2.3-5.2-5.1-5.8C554,35.9,550.6,36.1,547.1,36.2L547.1,36.2z"/>
	<path class="st0" d="M640.8,18.8h20.9l26,41.4V18.9H709v75.2h-21l-25.8-41.3v41.3h-21.4V18.8z"/>
	<path class="st0" d="M307,18.9h21.3v27.8H353V18.9h21.6v75.2h-21.5V64.6h-24.8v29.6H307V18.9z"/>
	<path d="M417.4,46.7l7.6,22.6h-15.2"/>
	<path class="st0" d="M738.7,19v74.9H718V19H738.7z"/>
	<path class="st0" d="M747.4,93.9V19h20.7l26.5,41.5V19h20.6v74.9h-20.6l-26.5-42v42H747.4z"/>
	<path class="st0" d="M862.7,51.9h40.9c0,3.7-0.2,7.3-0.5,11c-0.3,3.1-1,6.2-2.1,9.2c-1.4,3.8-3.4,7.4-6,10.6
		c-2.5,3-5.5,5.6-8.9,7.7c-3.5,2.1-7.2,3.7-11.2,4.7c-4.2,1.1-8.5,1.7-12.8,1.6c-5.8,0.1-11.5-0.9-16.9-2.9
		c-4.9-1.8-9.3-4.6-13.1-8.2c-3.7-3.6-6.6-7.9-8.5-12.7c-2.1-5.2-3.1-10.8-3-16.4c-0.1-5.6,1-11.1,3-16.3c1.9-4.8,4.8-9.1,8.5-12.7
		c3.8-3.6,8.4-6.4,13.3-8.2c5.6-2,11.4-3,17.3-2.9c7.6-0.2,15.1,1.6,21.8,5.1c6.2,3.4,11.2,8.7,14.8,15.9l-19.5,7.8
		c-1.8-4.2-4.2-7.2-7.1-9c-3-1.8-6.4-2.8-9.9-2.7c-2.9,0-5.7,0.5-8.4,1.7c-2.5,1.1-4.7,2.7-6.5,4.7c-1.9,2.2-3.3,4.7-4.2,7.4
		c-1,3.1-1.5,6.4-1.5,9.7c0,3,0.4,6.1,1.3,9c0.8,2.6,2.1,5.1,3.9,7.2c1.8,2,4,3.6,6.5,4.7c2.9,1.2,5.9,1.7,9,1.7c2,0,4-0.2,5.9-0.7
		c1.8-0.4,3.5-1.1,5.1-2.1c1.5-1,2.8-2.3,3.7-3.8c1-1.7,1.7-3.6,2-5.7h-16.9V51.9z"/>
	<path class="st0" d="M962.8,28.3c1.3,3,2,6.2,2,9.4c0,10.6-6.4,18-19.1,22.5v7.6h-19.4V47.2c0.8,0.1,1.6,0.3,2.3,0.4
		c0.7,0.1,1.3,0.2,2,0.2c1.8,0,3.6-0.3,5.4-0.8c1.6-0.5,3.1-1.2,4.4-2.2c1.2-0.9,2.2-2,2.9-3.3c0.7-1.3,1.1-2.8,1.1-4.3
		c0-2-0.7-4-2.1-5.5c-1.5-1.6-3.6-2.4-5.7-2.3c-2-0.1-3.9,0.7-5.2,2.2c-1.4,1.6-2.1,3.7-2,5.8h-21c0-3.4,0.7-6.8,2.2-9.9
		c1.4-3,3.5-5.6,6-7.8c2.7-2.3,5.7-4,9.1-5.2c3.6-1.3,7.5-1.9,11.3-1.9c3.9,0,7.7,0.7,11.3,2.1c3.3,1.3,6.2,3.2,8.8,5.5
		C959.5,22.5,961.4,25.3,962.8,28.3z"/>
	<path class="st0" d="M947.9,79.5c1.3,3.1,1.3,6.5,0,9.6c-1.2,3-3.6,5.4-6.6,6.6c-3.1,1.3-6.5,1.3-9.6,0c-1.5-0.6-2.9-1.5-4-2.6
		c-1.1-1.2-2-2.5-2.6-4c-1.3-3.1-1.3-6.5,0-9.6c1.2-3,3.6-5.4,6.6-6.6c3.1-1.3,6.5-1.3,9.6,0c1.5,0.6,2.8,1.5,4,2.6
		C946.4,76.6,947.3,78,947.9,79.5z"/>
</g>
</svg>
