<svg xmlns="http://www.w3.org/2000/svg" viewBox="0 0 474.07 113.05"><defs><style>.cls-1{fill:#fff;}</style></defs><title>mih-b-</title><g id="Layer_1" data-name="Layer 1"><path class="cls-1" d="M455.25,83.5a12.64,12.64,0,0,1-25.27.08,12.64,12.64,0,1,1,25.27-.08Z"/><path class="cls-1" d="M421,18.87V93.92c-1.68.47-15,.63-20.9.25-8.42-13.48-16.93-27.1-25.45-40.72l-.41.12V93.81c-1.72.56-18.94.68-21.51.19V18.82h20.91c4.21,6.73,8.47,13.54,12.74,20.35l12.75,20.34.47-.14V18.87Z"/><path class="cls-1" d="M321,46.78c7.11.29,14.1,0,21.23.18V65.62c-7,.1-14,0-21.08.07V75.5h22c.56,1.67.68,16,.18,18.63h-43.7V18.87h43.86v18.4c-2.42.26-4.86.08-7.29.11s-4.93,0-7.4,0h-7.44c-.59,1.58-.24,3.1-.3,4.59S321,45,321,46.78Z"/><path class="cls-1" d="M293,37.09A35.85,35.85,0,0,1,293,52c-2.08,9.88-8.3,15.73-18.38,17.52-4.46.8-9,.67-13.45.68-1.22,0-2.44,0-4,0v24H236c-.48-1.57-.58-72.67-.1-75.24a11,11,0,0,1,1.43-.13c10.37,0,20.74,0,31.12.08a31.3,31.3,0,0,1,10.43,1.92A20.91,20.91,0,0,1,293,37.09Zm-20.3,9.3a18.1,18.1,0,0,0,0-3.68,6.37,6.37,0,0,0-5.3-6.09,35.06,35.06,0,0,0-9.85-.49c-.52,2.07-.5,15,0,16.89,3.27,0,6.6.23,9.87-.55A6.31,6.31,0,0,0,272.72,46.39Z"/><path class="cls-1" d="M215.75,21.11A20.73,20.73,0,0,1,229.06,36.6a35.56,35.56,0,0,1-.23,16.6c-2.09,8.51-7.53,13.65-15.91,15.84a42.25,42.25,0,0,1-10.57,1.16c-2.89,0-5.78,0-9,0V94c-1.8.47-19.08.55-21.51.12V19a8.42,8.42,0,0,1,1.3-.2c10.74,0,21.48,0,32.21.13A29.06,29.06,0,0,1,215.75,21.11Zm-7,26.2a12.63,12.63,0,0,0-.23-6.23,5.78,5.78,0,0,0-3.67-4c-3.69-1.34-7.5-1-11.38-1V53c3.62,0,7.09.28,10.48-.65A6.29,6.29,0,0,0,208.76,47.31Z"/><path class="cls-1" d="M169.09,94.22h-23q-1.43-3.72-2.93-7.61H115.21l-3.08,7.57H89.21C98.89,69,108.51,44,118.13,19h22.61C150.13,43.89,159.55,68.88,169.09,94.22ZM122.17,69.31h14.49c-.53-3.18-6.6-20.83-7.5-21.89C126.49,54.06,122.14,67.6,122.17,69.31Z"/><path class="cls-1" d="M40.21,46.39c1.74.51,21.63.64,24.7.19V19.16c1.8-.53,19-.63,21.42-.2.42,1.62.53,72.41.12,75-1.56.45-18.77.54-21.38.08V64.82c-1.71-.52-21.47-.66-24.75-.2,0,3.18,0,6.41,0,9.65V94.14H18.9V18.87H40.21Z"/><path d="M118.13,19c-9.62,25-19.24,50-28.92,75.21h22.92l3.08-7.57h27.94q1.5,3.89,2.93,7.61h23c-9.54-25.34-19-50.33-28.35-75.25ZM352.75,94c2.57.49,19.79.37,21.51-.19V53.57l.41-.12c8.52,13.62,17,27.24,25.45,40.72,5.92.38,19.22.22,20.9-.25v-75h-21.4v40.5l-.47.14L386.4,39.17c-4.27-6.81-8.53-13.62-12.74-20.35H352.75Zm-180.9.09c2.43.43,19.71.35,21.51-.12V70.2c3.21,0,6.1,0,9,0A42.25,42.25,0,0,0,212.92,69c8.38-2.19,13.82-7.33,15.91-15.84a35.56,35.56,0,0,0,.23-16.6,20.73,20.73,0,0,0-13.31-15.49A29.06,29.06,0,0,0,205.36,19c-10.73-.1-21.47-.1-32.21-.13a8.42,8.42,0,0,0-1.3.2ZM336.19,37.38c2.43,0,4.87.15,7.29-.11V18.87H299.62V94.13h43.7c.5-2.62.38-17-.18-18.63h-22V65.69c7.12-.1,14.1,0,21.08-.07V47c-7.13-.21-14.12.11-21.23-.18,0-1.77,0-3.29,0-4.8s-.29-3,.3-4.59h7.44C331.26,37.39,333.73,37.41,336.19,37.38ZM86.45,93.92c.41-2.55.3-73.34-.12-75-2.44-.43-19.62-.33-21.42.2V46.58c-3.07.45-23,.32-24.7-.19V18.87H18.9V94.14H40.28V74.27c0-3.24,0-6.47,0-9.65,3.28-.46,23-.32,24.75.2V94C67.68,94.46,84.89,94.37,86.45,93.92ZM261.14,70.2c4.49,0,9,.12,13.45-.68C284.67,67.73,290.89,61.88,293,52A35.85,35.85,0,0,0,293,37.09a20.91,20.91,0,0,0-14.17-16.26,31.3,31.3,0,0,0-10.43-1.92c-10.38-.07-20.75-.07-31.12-.08a11,11,0,0,0-1.43.13c-.48,2.57-.38,73.67.1,75.24h21.21v-24C258.7,70.2,259.92,70.21,261.14,70.2ZM474.06,0V113.06H0V0ZM442.58,96.15a12.64,12.64,0,1,0-.09-25.27,12.64,12.64,0,0,0,.09,25.27Z"/><path d="M272.7,42.71a18.1,18.1,0,0,1,0,3.68,6.31,6.31,0,0,1-5.26,6.08c-3.27.78-6.6.53-9.87.55-.54-1.93-.56-14.82,0-16.89a35.06,35.06,0,0,1,9.85.49A6.37,6.37,0,0,1,272.7,42.71Z"/><path d="M208.53,41.08a12.63,12.63,0,0,1,.23,6.23,6.29,6.29,0,0,1-4.8,5.07c-3.39.93-6.86.6-10.48.65V36.1c3.88,0,7.69-.39,11.38,1A5.78,5.78,0,0,1,208.53,41.08Z"/><path d="M136.66,69.31H122.17c0-1.71,4.32-15.25,7-21.89C130.06,48.48,136.13,66.13,136.66,69.31Z"/></g></svg>