<svg xmlns="http://www.w3.org/2000/svg" viewBox="0 0 119.23 112.72"><defs><style>.cls-1{fill:#fff;}</style></defs><title>mih-b-</title><g id="Layer_1" data-name="Layer 1"><path class="cls-1" d="M100.27,19V37.36H84.91c-.32,4.92-.12,9.61-.15,14.29s0,9.44,0,14.15V94.19H63.18c0-2.65-.05-5.3-.05-8s0-5.37,0-8.06V37.51H47.61V19.09C49.11,18.61,97.51,18.48,100.27,19Z"/><path class="cls-1" d="M39.89,18.86c.46,1.57.61,72.2.15,75.32H18.81V18.86Z"/><path d="M119.23,0V112.72a2.29,2.29,0,0,1-.17.23.42.42,0,0,1-.19.09,7.64,7.64,0,0,1-1.07.14q-58.44,0-116.89,0A4.36,4.36,0,0,1,.08,113C-.34,111.4-.43,2.52,0,0Zm-19,37.36V19c-2.76-.49-51.16-.36-52.66.12V37.51H63.12V78.18c0,2.69,0,5.37,0,8.06s0,5.3.05,8H84.75V65.8c0-4.71,0-9.43,0-14.15s-.17-9.37.15-14.29ZM40,94.18c.46-3.12.31-73.75-.15-75.32H18.81V94.18Z"/></g></svg>