<svg xmlns="http://www.w3.org/2000/svg" viewBox="0 0 319.02 112.69"><defs><style>.cls-1{fill:#fff;}</style></defs><title>mih-b-</title><g id="Layer_1" data-name="Layer 1"><path class="cls-1" d="M299.76,75.32c.56,1.63.72,15.19.29,18.5-1.56.43-39.66.61-43.6.21-.5-1.49-.64-72.78-.12-75.46h43.74V37.09c-.71,0-1.47.14-2.23.14H280.22c-.78,0-1.56.06-2.44.1v9.42h21.14V65.43H277.81v9.89Z"/><path class="cls-1" d="M251.64,19.54,222.73,54.06a3.8,3.8,0,0,0-.22.51L255,94.07h-28.1L204.85,65.56l-.46.18V94H182.8V18.79c1.54-.45,18.39-.58,21.43-.13a55.49,55.49,0,0,1,.14,6.59c0,2.25,0,4.5,0,6.75V45.37l.47.13,20.6-27h26.4a2.11,2.11,0,0,1,.15.28.35.35,0,0,1,0,.2A3.34,3.34,0,0,1,251.64,19.54Z"/><path class="cls-1" d="M179.8,94h-23l-2.95-7.57h-27.9L122.86,94H100.33c.12-1.65,26.17-70,28.66-75.19h22.49C160.92,43.91,170.32,68.85,179.8,94Zm-47-24.92h14.8c-2.5-7.45-4.92-14.67-7.4-22.08C139,49.19,132.88,67.48,132.84,69.11Z"/><path class="cls-1" d="M96.19,18.58V94H75c0-5.21,0-10.4,0-15.59s0-10.24,0-15.36l-.45-.13-13,31.15H52.11Q46.39,79.76,40.68,65.47l-.57.05V94H19V18.59h24.2c2.23,5.87,4.51,11.88,6.8,17.88s4.59,12,7.09,18.62c5-12.45,9.84-24.42,14.71-36.51Z"/><path d="M255,94.07l-32.52-39.5a3.8,3.8,0,0,1,.22-.51l28.91-34.52A3.34,3.34,0,0,0,252,19a.35.35,0,0,0,0-.2,2.11,2.11,0,0,0-.15-.28h-26.4l-20.6,27-.47-.13V32c0-2.25,0-4.5,0-6.75a55.49,55.49,0,0,0-.14-6.59c-3-.45-19.89-.32-21.43.13V94h21.59V65.74l.46-.18,22.08,28.51Zm1.3-75.5c-.52,2.68-.38,74,.12,75.46,3.94.4,42,.22,43.6-.21.43-3.31.27-16.87-.29-18.5H277.81V65.43h21.11V46.76H277.78V37.34c.88,0,1.66-.1,2.44-.1h17.62c.76,0,1.52-.1,2.23-.14V18.57ZM319-.11v112.8c-2.26.46-317.23.39-319-.08V0C1.67-.42,316.28-.54,319-.11ZM156.8,94h23c-9.48-25.18-18.88-50.12-28.32-75.2H129C126.5,24,100.45,92.37,100.33,94h22.53l3.09-7.56h27.9ZM96.19,94V18.58H71.76C66.89,30.67,62.06,42.64,57,55.09c-2.5-6.57-4.8-12.59-7.09-18.62s-4.57-12-6.8-17.88H19V94H40.11V65.52l.57-.05q5.72,14.31,11.43,28.62h9.41l13-31.15.45.13c0,5.12,0,10.24,0,15.36S75,88.81,75,94Z"/><path d="M147.64,69.11h-14.8c0-1.63,6.12-19.92,7.4-22.08C142.72,54.44,145.14,61.66,147.64,69.11Z"/></g></svg>