<svg id="Layer_1" data-name="Layer 1" xmlns="http://www.w3.org/2000/svg" viewBox="0 0 951.15 113.2"><defs><style>.cls-1{fill:#fff;}.cls-2{fill:none;}</style></defs><title>isithappening drawing board 2</title><rect class="cls-1" x="477.08" width="474.07" height="113.05"/><rect class="cls-1" x="338.41" y="0.09" width="119.23" height="113.18"/><rect class="cls-1" y="0.29" width="319.02" height="112.69"/><path d="M319,.17V113c-2.26.46-317.24.39-319-.08V.29C1.67-.14,316.28-.25,319,.17ZM40.1,65.81l.57-.05L52.11,94.38h9.41l13-31.14.45.12Q75,71,75,78.72c0,5.19,0,10.38,0,15.59H96.19V18.87H71.76L57,55.38,50,36.76,43.16,18.88H19V94.34H40.1ZM255,94.36l-32.52-39.5a3.51,3.51,0,0,1,.21-.5l28.91-34.52a3.18,3.18,0,0,0,.33-.55.32.32,0,0,0,0-.21,1.46,1.46,0,0,0-.15-.28h-26.4l-20.59,27-.47-.13q0-3.31,0-6.62V32.29c0-2.25,0-4.5,0-6.75a53.89,53.89,0,0,0-.14-6.6c-3-.44-19.88-.31-21.43.14V94.3h21.59V66l.47-.17,22.08,28.5ZM151.47,19.11H129c-2.49,5.18-28.54,73.54-28.66,75.2h22.52l3.09-7.56h27.9l3,7.56h23ZM277.78,47V37.63c.88,0,1.66-.1,2.43-.1h17.62c.76,0,1.52-.09,2.23-.14V18.86H256.32c-.52,2.68-.37,74,.13,75.45,3.94.4,42,.23,43.59-.2.44-3.31.27-16.87-.29-18.5H277.81V65.72h21.11V47Z"/><path d="M457.64.09V112.81a1.63,1.63,0,0,1-.18.23.4.4,0,0,1-.19.1,7.46,7.46,0,0,1-1.07.13H339.31a4.57,4.57,0,0,1-.83-.15c-.42-1.62-.51-110.5-.08-113ZM401.53,37.6V78.27c0,2.68,0,5.37,0,8.05s0,5.3.05,8h21.58c0-4.84,0-9.54,0-14.24V65.89c0-4.72,0-9.43,0-14.15s-.17-9.37.15-14.3h15.36V19.06c-2.75-.5-51.15-.36-52.65.12V37.6ZM357.22,94.27h21.23c.46-3.12.3-73.75-.15-75.32H357.22Z"/><path class="cls-2" d="M755.94,20.83a31.21,31.21,0,0,0-10.44-1.91c-10.37-.07-20.74-.07-31.11-.09-.49,0-1,.09-1.43.13-.49,2.57-.38,73.68.09,75.24h21.21v-24h4c4.49,0,9,.12,13.45-.68,10.07-1.8,16.3-7.65,18.38-17.53a35.81,35.81,0,0,0,0-14.91A20.93,20.93,0,0,0,755.94,20.83Z"/><path class="cls-2" d="M798.26,75.5V65.69c7.12-.1,14.11,0,21.08-.07V47c-7.12-.22-14.12.1-21.22-.19,0-1.77,0-3.29,0-4.8s-.29-3,.31-4.59h7.44c2.47,0,4.93,0,7.4,0s4.87.15,7.29-.12V18.87H776.71V94.13h43.71c.49-2.62.38-17-.18-18.63Z"/><path class="cls-2" d="M692.84,21.11A29.13,29.13,0,0,0,682.45,19c-10.74-.1-21.48-.1-32.21-.13a8.62,8.62,0,0,0-1.3.2V94.09c2.43.43,19.71.35,21.52-.12V70.2c3.21,0,6.1,0,9,0A42.49,42.49,0,0,0,690,69c8.38-2.19,13.82-7.34,15.91-15.84a35.5,35.5,0,0,0,.24-16.6A20.75,20.75,0,0,0,692.84,21.11Z"/><path class="cls-2" d="M876.71,59.37l-.47.15L863.49,39.17,850.74,18.82h-20.9V94c2.57.49,19.79.38,21.51-.18V53.57l.41-.12,25.45,40.72c5.92.38,19.22.22,20.9-.25V18.87h-21.4Z"/><path class="cls-2" d="M595.22,19,566.3,94.18h22.92l3.08-7.57h27.94l2.93,7.61h23L617.83,19Z"/><path class="cls-2" d="M542,19.16V46.58c-3.07.45-23,.32-24.7-.2V18.87H496V94.14h21.38V84.28q0-5,0-10c0-3.23,0-6.47,0-9.65,3.28-.46,23-.32,24.75.2V94c2.62.46,19.82.37,21.38-.08.41-2.55.3-73.34-.12-75C561,18.53,543.8,18.63,542,19.16Z"/><path d="M477.08,0V113.05H951.15V0Zm86.45,93.92c-1.56.44-18.76.54-21.38.08V64.81c-1.71-.51-21.47-.66-24.75-.2,0,3.18,0,6.42,0,9.65s0,6.68,0,10v9.86H496V18.87h21.31V46.39c1.75.51,21.63.65,24.7.2V19.16c1.8-.53,19-.63,21.42-.19C563.84,20.58,563.95,91.37,563.53,93.92Zm59.64.3-2.93-7.61H592.3l-3.08,7.57H566.3L595.22,19h22.61l28.35,75.25Zm82.74-41C703.83,61.7,698.38,66.85,690,69a42.49,42.49,0,0,1-10.57,1.16c-2.89,0-5.78,0-9,0V94c-1.8.47-19.08.55-21.52.12V19a8.62,8.62,0,0,1,1.3-.2c10.74,0,21.48,0,32.21.13a29.13,29.13,0,0,1,10.39,2.15A20.75,20.75,0,0,1,706.15,36.6,35.5,35.5,0,0,1,705.92,53.2ZM770.06,52c-2.08,9.88-8.31,15.73-18.38,17.53-4.46.8-9,.67-13.45.68h-4v24H713.05c-.47-1.57-.58-72.67-.09-75.24.45,0,.94-.13,1.43-.13,10.37,0,20.74,0,31.11.09a31.21,31.21,0,0,1,10.44,1.91,20.93,20.93,0,0,1,14.17,16.26A35.81,35.81,0,0,1,770.06,52Zm50.35,42.13H776.71V18.87h43.86v18.4c-2.42.26-4.86.08-7.29.12s-4.93,0-7.4,0h-7.44c-.59,1.58-.25,3.1-.31,4.59s0,3,0,4.8c7.11.29,14.1,0,21.22.19V65.61c-7,.11-14,0-21.08.07V75.5h22C820.79,77.17,820.91,91.51,820.41,94.13Zm77.7-.21c-1.68.47-15,.63-20.9.25L851.76,53.45l-.41.12V93.81c-1.72.56-18.94.67-21.51.18V18.82h20.9l12.75,20.35,12.75,20.34.47-.15V18.87h21.4Zm21.55,2.23a12.62,12.62,0,0,1-12.6-12.57,12.64,12.64,0,1,1,25.27-.08A12.5,12.5,0,0,1,919.66,96.15Z"/><path d="M613.75,69.31H599.26c0-1.71,4.31-15.26,7-21.89C607.15,48.48,613.22,66.13,613.75,69.31Z"/><path d="M670.56,53V36.1c3.88,0,7.7-.39,11.39,1a5.77,5.77,0,0,1,3.67,4,12.62,12.62,0,0,1,.23,6.23,6.29,6.29,0,0,1-4.8,5.07C677.65,53.31,674.19,53,670.56,53Z"/><path d="M734.63,36.13a35,35,0,0,1,9.86.49,6.38,6.38,0,0,1,5.3,6.09,19,19,0,0,1,0,3.68,6.33,6.33,0,0,1-5.26,6.09c-3.27.78-6.6.53-9.87.55C734.14,51.09,734.11,38.2,734.63,36.13Z"/><path d="M140.24,47.32l7.4,22.08H132.84C132.88,67.77,139,49.48,140.24,47.32Z"/></svg>