<?xml version="1.0" encoding="utf-8"?>
<!-- Generator: Adobe Illustrator 21.1.0, SVG Export Plug-In . SVG Version: 6.00 Build 0)  -->
<svg version="1.1" id="Layer_1" xmlns="http://www.w3.org/2000/svg" xmlns:xlink="http://www.w3.org/1999/xlink" x="0px" y="0px"
	 viewBox="0 0 481.9 481.9" style="enable-background:new 0 0 481.9 481.9;" xml:space="preserve">
<style type="text/css">
	.st0{fill:#7F7F7F;}
	.st1{fill:#FFFFFF;}
</style>
<g>
	<g id="XMLID_1_">
		<g>
			<path class="st0" d="M463.5,231.3c0.5,11.1,0.4,14.2-0.3,23.8c-0.7,9.6-1.7,18.4-5.4,37.5C432.2,403.4,326.1,479.5,207.9,462
				c-43.6-6.5-82-24.7-114.7-54.3c-39.6-35.8-63.5-80.2-71.3-133.2c-1.4-9.4-2.4-24.2-2.5-27.6c-0.1-3.4-0.1-4.8-0.1-7.1
				c0.1-2.3,0.2-5.4,0.5-9.5c0.3-4.1,5.3-43.7,13.4-65.2C71.9,62.2,177.2,3.6,285.4,24.5c86.2,16.7,155.6,85,173.5,171.2
				C461.4,208.1,463,220.2,463.5,231.3z M359.7,297.5c0.6-35.1,0.7-70.3,0-105.5c-0.8-39.1-28.2-66.3-66.9-66.8
				c-35.3-0.5-70.7-0.5-106,0.1c-37.2,0.6-64.2,27-65.9,64.2c-0.8,18.6-0.2,37.3-0.2,56c-0.1,0-0.2,0-0.3,0
				c0,16.2-0.3,32.3,0.1,48.5c0.2,7.9,0.9,16.1,2.9,23.7c7.8,29,33.2,47.3,65.7,47.5c33.8,0.2,67.7,0.3,101.5,0
				C331,364.9,359,337.7,359.7,297.5z"/>
			<path class="st1" d="M359.7,192.1c0.7,35.1,0.7,70.3,0,105.5c-0.7,40.1-28.8,67.3-68.9,67.6c-33.8,0.3-67.7,0.2-101.5,0
				c-32.5-0.2-57.9-18.6-65.7-47.5c-2-7.6-2.7-15.8-2.9-23.7c-0.4-16.1-0.1-32.3-0.1-48.5c0.1,0,0.2,0,0.3,0c0-18.7-0.7-37.3,0.2-56
				c1.7-37.2,28.6-63.5,65.9-64.2c35.3-0.6,70.7-0.5,106-0.1C331.5,125.7,358.9,152.9,359.7,192.1z M338,295
				c0.1-33.3,0.1-66.7,0-100c-0.1-29.6-17.9-47.9-47.5-48.3c-33.8-0.4-67.7-0.4-101.5,0c-29,0.4-46.3,17.1-46.7,45.5
				c-0.5,34.7-0.6,69.3,0,104c0.3,19.6,8.6,35.4,28.1,42.5c6.6,2.4,13.9,3.3,21,3.6c16.3,0.5,32.7,0.2,49,0.2c0,0,0,0,0,0
				c17,0,34,0.3,51-0.1C320.3,341.8,337.9,323.8,338,295z"/>
			<path class="st0" d="M338,195c0.1,33.3,0.1,66.7,0,100c-0.1,28.8-17.8,46.8-46.6,47.4c-17,0.3-34,0.1-51,0.1c0,0,0,0,0,0
				c-16.3,0-32.7,0.3-49-0.2c-7-0.2-14.4-1.2-21-3.6c-19.5-7.2-27.8-22.9-28.1-42.5c-0.6-34.7-0.6-69.3,0-104
				c0.4-28.4,17.7-45.1,46.7-45.5c33.8-0.5,67.7-0.4,101.5,0C320.1,147.1,337.9,165.5,338,195z M304.2,194.4
				c8.1-0.2,14-6.4,13.9-14.5c-0.1-8-6.3-14.3-14.3-14.3c-8.1-0.1-14.6,6.6-14.5,14.7C289.5,188.5,295.9,194.6,304.2,194.4z
				 M302,244.7c0.1-33.7-27.8-61.8-61.7-61.9c-34.4-0.1-62,27.3-62.1,61.8c-0.1,33.2,27.7,60.8,61.3,60.9
				C274.1,305.6,301.9,278.5,302,244.7z"/>
			<path class="st1" d="M318.2,179.9c0.1,8.2-5.9,14.3-13.9,14.5c-8.3,0.2-14.8-6-14.9-14.2c-0.1-8.1,6.5-14.7,14.5-14.7
				C311.9,165.6,318.1,171.9,318.2,179.9z"/>
			<path class="st1" d="M240.4,182.8c33.8,0.1,61.8,28.1,61.7,61.9c-0.1,33.8-27.9,60.9-62.4,60.8c-33.7-0.1-61.4-27.7-61.3-60.9
				C178.4,210.1,205.9,182.7,240.4,182.8z M239.9,284c21.9-0.1,39.6-18.1,39.5-40c-0.1-22-18-39.7-39.9-39.6
				c-21.9,0.1-39.6,18-39.5,40C200.1,266.2,218.1,284.1,239.9,284z"/>
			<path class="st0" d="M279.4,244c0.1,21.9-17.6,39.8-39.5,40c-21.8,0.1-39.8-17.8-39.9-39.6c-0.1-21.9,17.7-39.8,39.5-40
				C261.4,204.3,279.3,222,279.4,244z"/>
		</g>
	</g>
</g>
</svg>
